<svg width="1268" height="418" viewBox="0 0 1268 418" fill="none" xmlns="http://www.w3.org/2000/svg">
<path d="M56.7954 328.528C56.8434 326.416 57.1794 324.868 57.8034 323.884C58.4274 322.9 59.4954 322.396 61.0074 322.372L61.4754 324.1C60.6594 324.124 60.0954 324.424 59.7834 325C59.4954 325.552 59.3514 326.392 59.3514 327.52H61.7274V332.416H56.7594L56.7954 328.528ZM63.9594 328.528C64.0074 326.416 64.3434 324.868 64.9674 323.884C65.5914 322.9 66.6594 322.396 68.1714 322.372L68.6394 324.1C67.8234 324.124 67.2594 324.424 66.9474 325C66.6594 325.552 66.5154 326.392 66.5154 327.52H68.8914V332.416H63.9234L63.9594 328.528ZM73.2429 322.84H79.1469V335.152L84.4389 322.84H90.1989L84.7269 335.944L90.6309 352H84.6189L80.1189 338.968L79.1469 340.552V352H73.2429V322.84ZM92.7822 331.192H98.1822V333.28C99.8622 331.648 101.542 330.832 103.222 330.832C104.422 330.832 105.334 331.276 105.958 332.164C106.606 333.052 106.93 334.192 106.93 335.584V352H101.494V336.448C101.494 335.872 101.398 335.452 101.206 335.188C101.014 334.9 100.69 334.756 100.234 334.756C99.6822 334.756 98.9982 335.044 98.1822 335.62V352H92.7822V331.192ZM117.124 352.36C114.868 352.36 113.128 351.76 111.904 350.56C110.704 349.36 110.104 347.62 110.104 345.34V337.852C110.104 335.572 110.704 333.832 111.904 332.632C113.128 331.432 114.868 330.832 117.124 330.832C119.38 330.832 121.108 331.432 122.308 332.632C123.532 333.832 124.144 335.572 124.144 337.852V345.34C124.144 347.62 123.532 349.36 122.308 350.56C121.108 351.76 119.38 352.36 117.124 352.36ZM117.16 348.688C117.784 348.688 118.204 348.448 118.42 347.968C118.66 347.464 118.78 346.72 118.78 345.736V337.492C118.78 336.508 118.66 335.764 118.42 335.26C118.204 334.756 117.784 334.504 117.16 334.504C116.512 334.504 116.068 334.768 115.828 335.296C115.588 335.8 115.468 336.532 115.468 337.492V345.736C115.468 346.696 115.588 347.428 115.828 347.932C116.068 348.436 116.512 348.688 117.16 348.688ZM126.332 331.192H130.832L132.488 343.756L134.36 331.192H138.32L140.012 343.936L141.848 331.192H146.132L142.928 352H138.284L136.268 339.652L134.072 352H129.428L126.332 331.192ZM156.742 331.192H161.242L162.898 343.756L164.77 331.192H168.73L170.422 343.936L172.258 331.192H176.542L173.338 352H168.694L166.678 339.652L164.482 352H159.838L156.742 331.192ZM179.232 322.84H184.668V333.1C186.18 331.588 187.884 330.832 189.78 330.832C190.956 330.832 191.856 331.276 192.48 332.164C193.104 333.052 193.416 334.192 193.416 335.584V352H188.016V336.448C188.016 335.872 187.92 335.452 187.728 335.188C187.536 334.9 187.212 334.756 186.756 334.756C186.156 334.756 185.46 335.056 184.668 335.656V352H179.232V322.84ZM201.232 352.36C200.272 352.36 199.432 352.12 198.712 351.64C197.992 351.16 197.44 350.536 197.056 349.768C196.696 348.976 196.516 348.16 196.516 347.32C196.516 345.712 196.912 344.392 197.704 343.36C198.496 342.328 199.444 341.524 200.548 340.948C201.676 340.372 203.164 339.748 205.012 339.076V337.132C205.012 336.388 204.904 335.824 204.688 335.44C204.496 335.056 204.136 334.864 203.608 334.864C203.08 334.864 202.708 335.032 202.492 335.368C202.276 335.704 202.144 336.184 202.096 336.808L201.988 338.248L196.876 338.032C196.972 335.56 197.608 333.748 198.784 332.596C199.96 331.42 201.724 330.832 204.076 330.832C206.116 330.832 207.652 331.396 208.684 332.524C209.716 333.652 210.232 335.2 210.232 337.168V346.852C210.232 348.484 210.352 350.2 210.592 352H205.732C205.636 351.304 205.48 350.308 205.264 349.012C204.976 349.972 204.484 350.776 203.788 351.424C203.116 352.048 202.264 352.36 201.232 352.36ZM203.176 348.508C203.536 348.508 203.872 348.388 204.184 348.148C204.52 347.908 204.796 347.632 205.012 347.32V341.596C203.884 342.244 203.02 342.916 202.42 343.612C201.82 344.308 201.52 345.16 201.52 346.168C201.52 346.912 201.664 347.488 201.952 347.896C202.24 348.304 202.648 348.508 203.176 348.508ZM219.948 352.252C217.86 352.252 216.408 351.784 215.592 350.848C214.8 349.912 214.404 348.484 214.404 346.564V334.756H212.352V331.192H214.404V324.928H219.912V331.192H222.936V334.756H219.912V346.024C219.912 347.248 220.524 347.86 221.748 347.86C222.396 347.86 222.912 347.812 223.296 347.716V351.964C222.024 352.156 220.908 352.252 219.948 352.252ZM241.683 352.36C239.427 352.36 237.687 351.76 236.463 350.56C235.263 349.36 234.663 347.62 234.663 345.34V337.852C234.663 335.572 235.263 333.832 236.463 332.632C237.687 331.432 239.427 330.832 241.683 330.832C243.939 330.832 245.667 331.432 246.867 332.632C248.091 333.832 248.703 335.572 248.703 337.852V345.34C248.703 347.62 248.091 349.36 246.867 350.56C245.667 351.76 243.939 352.36 241.683 352.36ZM241.719 348.688C242.343 348.688 242.763 348.448 242.979 347.968C243.219 347.464 243.339 346.72 243.339 345.736V337.492C243.339 336.508 243.219 335.764 242.979 335.26C242.763 334.756 242.343 334.504 241.719 334.504C241.071 334.504 240.627 334.768 240.387 335.296C240.147 335.8 240.027 336.532 240.027 337.492V345.736C240.027 346.696 240.147 347.428 240.387 347.932C240.627 348.436 241.071 348.688 241.719 348.688ZM255.532 352.36C254.332 352.36 253.408 351.916 252.76 351.028C252.136 350.14 251.824 349 251.824 347.608V331.192H257.26V346.852C257.26 347.428 257.356 347.86 257.548 348.148C257.764 348.436 258.112 348.58 258.592 348.58C259.096 348.58 259.732 348.316 260.5 347.788V331.192H265.936V352H260.5V350.056C258.844 351.592 257.188 352.36 255.532 352.36ZM269.76 331.192H275.196V334.54C275.916 333.292 276.612 332.38 277.284 331.804C277.98 331.228 278.784 330.94 279.696 330.94C279.912 330.94 280.188 330.964 280.524 331.012V336.556C279.9 336.268 279.252 336.124 278.58 336.124C277.26 336.124 276.132 336.796 275.196 338.14V352H269.76V331.192ZM19.0947 379.192H24.4947V380.74C25.8867 379.468 27.3627 378.832 28.9227 378.832C30.4827 378.856 31.6227 379.492 32.3427 380.74C33.0627 381.988 33.4227 383.524 33.4227 385.348V393.484C33.4227 395.548 33.0267 397.216 32.2347 398.488C31.4427 399.736 30.2787 400.36 28.7427 400.36C27.3747 400.36 25.9587 399.712 24.4947 398.416V406.84H19.0947V379.192ZM26.3307 396.724C27.4347 396.724 27.9867 395.716 27.9867 393.7V384.988C27.9867 383.164 27.4467 382.252 26.3667 382.252C25.7907 382.252 25.1667 382.516 24.4947 383.044V396.112C25.1427 396.52 25.7547 396.724 26.3307 396.724ZM36.8854 379.192H42.3214V382.54C43.0414 381.292 43.7374 380.38 44.4094 379.804C45.1054 379.228 45.9094 378.94 46.8214 378.94C47.0374 378.94 47.3134 378.964 47.6494 379.012V384.556C47.0254 384.268 46.3774 384.124 45.7054 384.124C44.3854 384.124 43.2574 384.796 42.3214 386.14V400H36.8854V379.192ZM56.7256 400.36C54.4696 400.36 52.7296 399.76 51.5056 398.56C50.3056 397.36 49.7056 395.62 49.7056 393.34V385.852C49.7056 383.572 50.3056 381.832 51.5056 380.632C52.7296 379.432 54.4696 378.832 56.7256 378.832C58.9816 378.832 60.7096 379.432 61.9096 380.632C63.1336 381.832 63.7456 383.572 63.7456 385.852V393.34C63.7456 395.62 63.1336 397.36 61.9096 398.56C60.7096 399.76 58.9816 400.36 56.7256 400.36ZM56.7616 396.688C57.3856 396.688 57.8056 396.448 58.0216 395.968C58.2616 395.464 58.3816 394.72 58.3816 393.736V385.492C58.3816 384.508 58.2616 383.764 58.0216 383.26C57.8056 382.756 57.3856 382.504 56.7616 382.504C56.1136 382.504 55.6696 382.768 55.4296 383.296C55.1896 383.8 55.0696 384.532 55.0696 385.492V393.736C55.0696 394.696 55.1896 395.428 55.4296 395.932C55.6696 396.436 56.1136 396.688 56.7616 396.688ZM73.5269 407.02C71.2229 407.02 69.3989 406.672 68.0549 405.976C66.7349 405.28 66.0749 404.248 66.0749 402.88C66.0749 401.056 67.1429 399.676 69.2789 398.74C67.4549 398.26 66.5429 397.24 66.5429 395.68C66.5429 394.912 66.7229 394.228 67.0829 393.628C67.4669 393.028 68.0549 392.38 68.8469 391.684C68.1509 391.084 67.6229 390.34 67.2629 389.452C66.9269 388.54 66.7589 387.436 66.7589 386.14C66.7589 383.764 67.3589 381.952 68.5589 380.704C69.7829 379.456 71.5469 378.832 73.8509 378.832C75.9869 378.832 77.5829 379.432 78.6389 380.632C78.8789 380.224 79.2269 379.828 79.6829 379.444C80.1389 379.06 80.6549 378.736 81.2309 378.472L81.9509 378.112L83.2469 380.848C82.8869 380.968 82.3469 381.184 81.6269 381.496C80.9069 381.784 80.3429 382.048 79.9349 382.288C80.1749 382.792 80.3549 383.392 80.4749 384.088C80.6189 384.784 80.6909 385.48 80.6909 386.176C80.6909 388.456 80.1149 390.22 78.9629 391.468C77.8349 392.716 76.1309 393.34 73.8509 393.34C72.6509 393.34 71.5829 393.172 70.6469 392.836C70.2629 393.316 70.0709 393.76 70.0709 394.168C70.0709 394.456 70.2149 394.684 70.5029 394.852C70.7909 395.02 71.2829 395.14 71.9789 395.212L76.9829 395.752C80.3909 396.136 82.0949 397.924 82.0949 401.116C82.0949 403.108 81.4109 404.584 80.0429 405.544C78.6989 406.528 76.5269 407.02 73.5269 407.02ZM73.8509 390.028C74.5709 390.028 75.0509 389.752 75.2909 389.2C75.5309 388.624 75.6509 387.604 75.6509 386.14C75.6509 384.652 75.5309 383.62 75.2909 383.044C75.0509 382.444 74.5709 382.144 73.8509 382.144C73.1309 382.144 72.6389 382.444 72.3749 383.044C72.1349 383.644 72.0149 384.676 72.0149 386.14C72.0149 387.532 72.1349 388.528 72.3749 389.128C72.6389 389.728 73.1309 390.028 73.8509 390.028ZM74.2109 403.06C75.6029 403.06 76.6229 402.928 77.2709 402.664C77.9429 402.424 78.2789 401.98 78.2789 401.332C78.2789 400.78 78.0629 400.372 77.6309 400.108C77.1989 399.868 76.3949 399.7 75.2189 399.604L71.4749 399.208C71.0669 399.568 70.7429 399.904 70.5029 400.216C70.2869 400.552 70.1789 400.912 70.1789 401.296C70.1789 401.896 70.4909 402.34 71.1149 402.628C71.7389 402.916 72.7709 403.06 74.2109 403.06ZM84.6979 379.192H90.1339V382.54C90.8539 381.292 91.5499 380.38 92.2219 379.804C92.9179 379.228 93.7219 378.94 94.6339 378.94C94.8499 378.94 95.1259 378.964 95.4619 379.012V384.556C94.8379 384.268 94.1899 384.124 93.5179 384.124C92.1979 384.124 91.0699 384.796 90.1339 386.14V400H84.6979V379.192ZM102.056 400.36C101.096 400.36 100.256 400.12 99.5358 399.64C98.8158 399.16 98.2638 398.536 97.8798 397.768C97.5198 396.976 97.3398 396.16 97.3398 395.32C97.3398 393.712 97.7358 392.392 98.5278 391.36C99.3198 390.328 100.268 389.524 101.372 388.948C102.5 388.372 103.988 387.748 105.836 387.076V385.132C105.836 384.388 105.728 383.824 105.512 383.44C105.32 383.056 104.96 382.864 104.432 382.864C103.904 382.864 103.532 383.032 103.316 383.368C103.1 383.704 102.968 384.184 102.92 384.808L102.812 386.248L97.6998 386.032C97.7958 383.56 98.4318 381.748 99.6078 380.596C100.784 379.42 102.548 378.832 104.9 378.832C106.94 378.832 108.476 379.396 109.508 380.524C110.54 381.652 111.056 383.2 111.056 385.168V394.852C111.056 396.484 111.176 398.2 111.416 400H106.556C106.46 399.304 106.304 398.308 106.088 397.012C105.8 397.972 105.308 398.776 104.612 399.424C103.94 400.048 103.088 400.36 102.056 400.36ZM104 396.508C104.36 396.508 104.696 396.388 105.008 396.148C105.344 395.908 105.62 395.632 105.836 395.32V389.596C104.708 390.244 103.844 390.916 103.244 391.612C102.644 392.308 102.344 393.16 102.344 394.168C102.344 394.912 102.488 395.488 102.776 395.896C103.064 396.304 103.472 396.508 104 396.508ZM114.649 379.192H119.941V380.92C121.333 379.504 122.965 378.796 124.837 378.796C125.653 378.796 126.361 379.012 126.961 379.444C127.585 379.852 128.053 380.476 128.365 381.316C129.853 379.636 131.617 378.796 133.657 378.796C134.857 378.796 135.805 379.24 136.501 380.128C137.221 380.992 137.581 382.216 137.581 383.8V400H132.325V384.34C132.325 383.668 132.205 383.2 131.965 382.936C131.749 382.648 131.413 382.504 130.957 382.504C130.645 382.504 130.285 382.588 129.877 382.756C129.493 382.924 129.121 383.164 128.761 383.476V383.8V400H123.505V384.34C123.505 383.668 123.385 383.2 123.145 382.936C122.929 382.648 122.593 382.504 122.137 382.504C121.825 382.504 121.465 382.588 121.057 382.756C120.673 382.924 120.301 383.164 119.941 383.476V400H114.649V379.192ZM150.264 379.192H155.7V382.54C156.42 381.292 157.116 380.38 157.788 379.804C158.484 379.228 159.288 378.94 160.2 378.94C160.416 378.94 160.692 378.964 161.028 379.012V384.556C160.404 384.268 159.756 384.124 159.084 384.124C157.764 384.124 156.636 384.796 155.7 386.14V400H150.264V379.192ZM170.069 400.36C167.789 400.36 166.049 399.736 164.849 398.488C163.673 397.24 163.085 395.44 163.085 393.088V386.104C163.085 383.752 163.685 381.952 164.885 380.704C166.085 379.456 167.813 378.832 170.069 378.832C172.397 378.832 174.101 379.456 175.181 380.704C176.261 381.952 176.801 383.8 176.801 386.248V389.884H168.485V393.916C168.485 394.804 168.617 395.452 168.881 395.86C169.169 396.268 169.577 396.472 170.105 396.472C171.185 396.472 171.725 395.692 171.725 394.132V392.116H176.765V393.916C176.765 396.004 176.189 397.6 175.037 398.704C173.885 399.808 172.229 400.36 170.069 400.36ZM171.725 387.292V385.276C171.725 384.364 171.593 383.716 171.329 383.332C171.065 382.924 170.645 382.72 170.069 382.72C169.517 382.72 169.109 382.936 168.845 383.368C168.605 383.8 168.485 384.568 168.485 385.672V387.292H171.725ZM184.216 400.36C183.256 400.36 182.416 400.12 181.696 399.64C180.976 399.16 180.424 398.536 180.04 397.768C179.68 396.976 179.5 396.16 179.5 395.32C179.5 393.712 179.896 392.392 180.688 391.36C181.48 390.328 182.428 389.524 183.532 388.948C184.66 388.372 186.148 387.748 187.996 387.076V385.132C187.996 384.388 187.888 383.824 187.672 383.44C187.48 383.056 187.12 382.864 186.592 382.864C186.064 382.864 185.692 383.032 185.476 383.368C185.26 383.704 185.128 384.184 185.08 384.808L184.972 386.248L179.86 386.032C179.956 383.56 180.592 381.748 181.768 380.596C182.944 379.42 184.708 378.832 187.06 378.832C189.1 378.832 190.636 379.396 191.668 380.524C192.7 381.652 193.216 383.2 193.216 385.168V394.852C193.216 396.484 193.336 398.2 193.576 400H188.716C188.62 399.304 188.464 398.308 188.248 397.012C187.96 397.972 187.468 398.776 186.772 399.424C186.1 400.048 185.248 400.36 184.216 400.36ZM186.16 396.508C186.52 396.508 186.856 396.388 187.168 396.148C187.504 395.908 187.78 395.632 187.996 395.32V389.596C186.868 390.244 186.004 390.916 185.404 391.612C184.804 392.308 184.504 393.16 184.504 394.168C184.504 394.912 184.648 395.488 184.936 395.896C185.224 396.304 185.632 396.508 186.16 396.508ZM197.062 370.84H202.462V400H197.062V370.84ZM206.554 370.84H211.954V400H206.554V370.84ZM216.154 402.052C217.378 402.052 218.254 401.92 218.782 401.656C219.334 401.416 219.61 400.972 219.61 400.324C219.61 400.012 219.526 399.52 219.358 398.848C219.214 398.176 219.046 397.48 218.854 396.76L214.102 379.192H219.286L221.914 391.972L224.074 379.192H229.258L224.434 400.648C224.002 402.568 223.198 403.912 222.022 404.68C220.846 405.472 219.274 405.868 217.306 405.868H216.154V402.052ZM245.01 400.36C241.746 400.36 240.114 398.068 240.114 393.484V385.852C240.114 383.716 240.522 382.012 241.338 380.74C242.154 379.468 243.378 378.832 245.01 378.832C246.378 378.832 247.698 379.384 248.97 380.488V370.84H254.406V400H248.97V398.452C247.698 399.724 246.378 400.36 245.01 400.36ZM247.242 396.76C247.77 396.76 248.346 396.556 248.97 396.148V382.9C248.346 382.54 247.77 382.36 247.242 382.36C246.666 382.36 246.246 382.612 245.982 383.116C245.718 383.596 245.586 384.244 245.586 385.06V393.88C245.586 395.8 246.138 396.76 247.242 396.76ZM264.71 400.36C262.454 400.36 260.714 399.76 259.49 398.56C258.29 397.36 257.69 395.62 257.69 393.34V385.852C257.69 383.572 258.29 381.832 259.49 380.632C260.714 379.432 262.454 378.832 264.71 378.832C266.966 378.832 268.694 379.432 269.894 380.632C271.118 381.832 271.73 383.572 271.73 385.852V393.34C271.73 395.62 271.118 397.36 269.894 398.56C268.694 399.76 266.966 400.36 264.71 400.36ZM264.746 396.688C265.37 396.688 265.79 396.448 266.006 395.968C266.246 395.464 266.366 394.72 266.366 393.736V385.492C266.366 384.508 266.246 383.764 266.006 383.26C265.79 382.756 265.37 382.504 264.746 382.504C264.098 382.504 263.654 382.768 263.414 383.296C263.174 383.8 263.054 384.532 263.054 385.492V393.736C263.054 394.696 263.174 395.428 263.414 395.932C263.654 396.436 264.098 396.688 264.746 396.688ZM281.619 400.36C279.339 400.36 277.599 399.736 276.399 398.488C275.223 397.24 274.635 395.44 274.635 393.088V386.104C274.635 383.752 275.235 381.952 276.435 380.704C277.635 379.456 279.363 378.832 281.619 378.832C283.947 378.832 285.651 379.456 286.731 380.704C287.811 381.952 288.351 383.8 288.351 386.248V389.884H280.035V393.916C280.035 394.804 280.167 395.452 280.431 395.86C280.719 396.268 281.127 396.472 281.655 396.472C282.735 396.472 283.275 395.692 283.275 394.132V392.116H288.315V393.916C288.315 396.004 287.739 397.6 286.587 398.704C285.435 399.808 283.779 400.36 281.619 400.36ZM283.275 387.292V385.276C283.275 384.364 283.143 383.716 282.879 383.332C282.615 382.924 282.195 382.72 281.619 382.72C281.067 382.72 280.659 382.936 280.395 383.368C280.155 383.8 280.035 384.568 280.035 385.672V387.292H283.275ZM297.639 400.36C295.839 400.36 294.351 399.928 293.175 399.064C291.999 398.176 291.099 396.82 290.475 394.996L294.291 393.412C295.011 395.548 296.031 396.616 297.351 396.616C297.855 396.616 298.227 396.508 298.467 396.292C298.731 396.052 298.863 395.728 298.863 395.32C298.863 394.768 298.683 394.276 298.323 393.844C297.987 393.412 297.303 392.752 296.271 391.864L294.327 390.208C293.175 389.224 292.323 388.312 291.771 387.472C291.219 386.632 290.943 385.624 290.943 384.448C290.943 383.344 291.219 382.372 291.771 381.532C292.323 380.668 293.067 380.008 294.003 379.552C294.963 379.072 296.007 378.832 297.135 378.832C298.815 378.832 300.195 379.312 301.275 380.272C302.379 381.208 303.135 382.528 303.543 384.232L300.015 385.816C299.799 384.952 299.451 384.22 298.971 383.62C298.491 382.996 297.927 382.684 297.279 382.684C296.847 382.684 296.499 382.816 296.235 383.08C295.971 383.32 295.839 383.644 295.839 384.052C295.839 384.46 296.043 384.904 296.451 385.384C296.859 385.84 297.495 386.44 298.359 387.184L300.303 388.912C301.431 389.872 302.307 390.796 302.931 391.684C303.579 392.572 303.903 393.604 303.903 394.78C303.903 395.932 303.615 396.928 303.039 397.768C302.487 398.608 301.731 399.256 300.771 399.712C299.811 400.144 298.767 400.36 297.639 400.36ZM307.038 379.156C307.854 379.132 308.406 378.844 308.694 378.292C309.006 377.74 309.162 376.9 309.162 375.772H306.786V370.84H311.754L311.718 374.728C311.646 376.864 311.298 378.424 310.674 379.408C310.074 380.392 309.018 380.896 307.506 380.92L307.038 379.156ZM314.202 379.156C315.018 379.132 315.57 378.844 315.858 378.292C316.17 377.74 316.326 376.9 316.326 375.772H313.95V370.84H318.918L318.882 374.728C318.81 376.864 318.462 378.424 317.838 379.408C317.238 380.392 316.182 380.896 314.67 380.92L314.202 379.156Z" fill="#F8AE39"/>
<path d="M474.004 328.528C474.052 326.416 474.388 324.868 475.012 323.884C475.636 322.9 476.704 322.396 478.216 322.372L478.684 324.1C477.868 324.124 477.304 324.424 476.992 325C476.704 325.552 476.56 326.392 476.56 327.52H478.936V332.416H473.968L474.004 328.528ZM481.168 328.528C481.216 326.416 481.552 324.868 482.176 323.884C482.8 322.9 483.868 322.396 485.38 322.372L485.848 324.1C485.032 324.124 484.468 324.424 484.156 325C483.868 325.552 483.724 326.392 483.724 327.52H486.1V332.416H481.132L481.168 328.528ZM497.976 352.396C495.288 352.396 493.272 351.664 491.928 350.2C490.584 348.712 489.852 346.42 489.732 343.324L494.844 342.46C494.892 344.308 495.144 345.676 495.6 346.564C496.08 347.428 496.788 347.86 497.724 347.86C498.42 347.86 498.924 347.644 499.236 347.212C499.548 346.756 499.704 346.18 499.704 345.484C499.704 344.332 499.44 343.36 498.912 342.568C498.408 341.752 497.604 340.864 496.5 339.904L493.476 337.276C492.276 336.268 491.352 335.188 490.704 334.036C490.08 332.884 489.768 331.504 489.768 329.896C489.768 327.52 490.464 325.696 491.856 324.424C493.272 323.128 495.216 322.48 497.688 322.48C500.328 322.48 502.164 323.248 503.196 324.784C504.228 326.296 504.816 328.228 504.96 330.58L499.812 331.336C499.764 329.8 499.584 328.672 499.272 327.952C498.984 327.208 498.396 326.836 497.508 326.836C496.86 326.836 496.356 327.088 495.996 327.592C495.636 328.072 495.456 328.648 495.456 329.32C495.456 330.28 495.66 331.096 496.068 331.768C496.5 332.416 497.172 333.136 498.084 333.928L501.036 336.52C502.428 337.744 503.52 339.04 504.312 340.408C505.104 341.752 505.5 343.336 505.5 345.16C505.5 346.552 505.188 347.8 504.564 348.904C503.94 349.984 503.052 350.836 501.9 351.46C500.772 352.084 499.464 352.396 497.976 352.396ZM508.34 323.704H513.812V327.772H508.34V323.704ZM508.376 331.192H513.812V352H508.376V331.192ZM524.029 359.02C521.725 359.02 519.901 358.672 518.557 357.976C517.237 357.28 516.577 356.248 516.577 354.88C516.577 353.056 517.645 351.676 519.781 350.74C517.957 350.26 517.045 349.24 517.045 347.68C517.045 346.912 517.225 346.228 517.585 345.628C517.969 345.028 518.557 344.38 519.349 343.684C518.653 343.084 518.125 342.34 517.765 341.452C517.429 340.54 517.261 339.436 517.261 338.14C517.261 335.764 517.861 333.952 519.061 332.704C520.285 331.456 522.049 330.832 524.353 330.832C526.489 330.832 528.085 331.432 529.141 332.632C529.381 332.224 529.729 331.828 530.185 331.444C530.641 331.06 531.157 330.736 531.733 330.472L532.453 330.112L533.749 332.848C533.389 332.968 532.849 333.184 532.129 333.496C531.409 333.784 530.845 334.048 530.437 334.288C530.677 334.792 530.857 335.392 530.977 336.088C531.121 336.784 531.193 337.48 531.193 338.176C531.193 340.456 530.617 342.22 529.465 343.468C528.337 344.716 526.633 345.34 524.353 345.34C523.153 345.34 522.085 345.172 521.149 344.836C520.765 345.316 520.573 345.76 520.573 346.168C520.573 346.456 520.717 346.684 521.005 346.852C521.293 347.02 521.785 347.14 522.481 347.212L527.485 347.752C530.893 348.136 532.597 349.924 532.597 353.116C532.597 355.108 531.913 356.584 530.545 357.544C529.201 358.528 527.029 359.02 524.029 359.02ZM524.353 342.028C525.073 342.028 525.553 341.752 525.793 341.2C526.033 340.624 526.153 339.604 526.153 338.14C526.153 336.652 526.033 335.62 525.793 335.044C525.553 334.444 525.073 334.144 524.353 334.144C523.633 334.144 523.141 334.444 522.877 335.044C522.637 335.644 522.517 336.676 522.517 338.14C522.517 339.532 522.637 340.528 522.877 341.128C523.141 341.728 523.633 342.028 524.353 342.028ZM524.713 355.06C526.105 355.06 527.125 354.928 527.773 354.664C528.445 354.424 528.781 353.98 528.781 353.332C528.781 352.78 528.565 352.372 528.133 352.108C527.701 351.868 526.897 351.7 525.721 351.604L521.977 351.208C521.569 351.568 521.245 351.904 521.005 352.216C520.789 352.552 520.681 352.912 520.681 353.296C520.681 353.896 520.993 354.34 521.617 354.628C522.241 354.916 523.273 355.06 524.713 355.06ZM535.128 331.192H540.528V333.28C542.208 331.648 543.888 330.832 545.568 330.832C546.768 330.832 547.68 331.276 548.304 332.164C548.952 333.052 549.276 334.192 549.276 335.584V352H543.84V336.448C543.84 335.872 543.744 335.452 543.552 335.188C543.36 334.9 543.036 334.756 542.58 334.756C542.028 334.756 541.344 335.044 540.528 335.62V352H535.128V331.192ZM565.374 352.36C564.174 352.36 563.25 351.916 562.602 351.028C561.978 350.14 561.666 349 561.666 347.608V331.192H567.102V346.852C567.102 347.428 567.198 347.86 567.39 348.148C567.606 348.436 567.954 348.58 568.434 348.58C568.938 348.58 569.574 348.316 570.342 347.788V331.192H575.778V352H570.342V350.056C568.686 351.592 567.03 352.36 565.374 352.36ZM579.53 331.192H584.93V332.74C586.322 331.468 587.798 330.832 589.358 330.832C590.918 330.856 592.058 331.492 592.778 332.74C593.498 333.988 593.858 335.524 593.858 337.348V345.484C593.858 347.548 593.462 349.216 592.67 350.488C591.878 351.736 590.714 352.36 589.178 352.36C587.81 352.36 586.394 351.712 584.93 350.416V358.84H579.53V331.192ZM586.766 348.724C587.87 348.724 588.422 347.716 588.422 345.7V336.988C588.422 335.164 587.882 334.252 586.802 334.252C586.226 334.252 585.602 334.516 584.93 335.044V348.112C585.578 348.52 586.19 348.724 586.766 348.724ZM612.477 352.252C610.389 352.252 608.937 351.784 608.121 350.848C607.329 349.912 606.933 348.484 606.933 346.564V334.756H604.881V331.192H606.933V324.928H612.441V331.192H615.465V334.756H612.441V346.024C612.441 347.248 613.053 347.86 614.277 347.86C614.925 347.86 615.441 347.812 615.825 347.716V351.964C614.553 352.156 613.437 352.252 612.477 352.252ZM625.212 352.36C622.956 352.36 621.216 351.76 619.992 350.56C618.792 349.36 618.192 347.62 618.192 345.34V337.852C618.192 335.572 618.792 333.832 619.992 332.632C621.216 331.432 622.956 330.832 625.212 330.832C627.468 330.832 629.196 331.432 630.396 332.632C631.62 333.832 632.232 335.572 632.232 337.852V345.34C632.232 347.62 631.62 349.36 630.396 350.56C629.196 351.76 627.468 352.36 625.212 352.36ZM625.248 348.688C625.872 348.688 626.292 348.448 626.508 347.968C626.748 347.464 626.868 346.72 626.868 345.736V337.492C626.868 336.508 626.748 335.764 626.508 335.26C626.292 334.756 625.872 334.504 625.248 334.504C624.6 334.504 624.156 334.768 623.916 335.296C623.676 335.8 623.556 336.532 623.556 337.492V345.736C623.556 346.696 623.676 347.428 623.916 347.932C624.156 348.436 624.6 348.688 625.248 348.688ZM654.253 352.36C652.861 352.36 651.445 351.724 650.005 350.452V352H644.569V322.84H650.005V332.74C651.397 331.468 652.873 330.832 654.433 330.832C655.993 330.832 657.133 331.468 657.853 332.74C658.573 333.988 658.933 335.524 658.933 337.348V345.484C658.933 347.548 658.537 349.216 657.745 350.488C656.953 351.736 655.789 352.36 654.253 352.36ZM651.877 348.724C652.477 348.724 652.897 348.46 653.137 347.932C653.377 347.38 653.497 346.636 653.497 345.7V336.988C653.497 335.164 652.969 334.252 651.913 334.252C651.289 334.252 650.653 334.516 650.005 335.044V348.076C650.605 348.508 651.229 348.724 651.877 348.724ZM668.875 352.36C666.595 352.36 664.855 351.736 663.655 350.488C662.479 349.24 661.891 347.44 661.891 345.088V338.104C661.891 335.752 662.491 333.952 663.691 332.704C664.891 331.456 666.619 330.832 668.875 330.832C671.203 330.832 672.907 331.456 673.987 332.704C675.067 333.952 675.607 335.8 675.607 338.248V341.884H667.291V345.916C667.291 346.804 667.423 347.452 667.687 347.86C667.975 348.268 668.383 348.472 668.911 348.472C669.991 348.472 670.531 347.692 670.531 346.132V344.116H675.571V345.916C675.571 348.004 674.995 349.6 673.843 350.704C672.691 351.808 671.035 352.36 668.875 352.36ZM670.531 339.292V337.276C670.531 336.364 670.399 335.716 670.135 335.332C669.871 334.924 669.451 334.72 668.875 334.72C668.323 334.72 667.915 334.936 667.651 335.368C667.411 335.8 667.291 336.568 667.291 337.672V339.292H670.531ZM692.023 352.36C691.063 352.36 690.223 352.12 689.503 351.64C688.783 351.16 688.231 350.536 687.847 349.768C687.487 348.976 687.307 348.16 687.307 347.32C687.307 345.712 687.703 344.392 688.495 343.36C689.287 342.328 690.235 341.524 691.339 340.948C692.467 340.372 693.955 339.748 695.803 339.076V337.132C695.803 336.388 695.695 335.824 695.479 335.44C695.287 335.056 694.927 334.864 694.399 334.864C693.871 334.864 693.499 335.032 693.283 335.368C693.067 335.704 692.935 336.184 692.887 336.808L692.779 338.248L687.667 338.032C687.763 335.56 688.399 333.748 689.575 332.596C690.751 331.42 692.515 330.832 694.867 330.832C696.907 330.832 698.443 331.396 699.475 332.524C700.507 333.652 701.023 335.2 701.023 337.168V346.852C701.023 348.484 701.143 350.2 701.383 352H696.523C696.427 351.304 696.271 350.308 696.055 349.012C695.767 349.972 695.275 350.776 694.579 351.424C693.907 352.048 693.055 352.36 692.023 352.36ZM693.967 348.508C694.327 348.508 694.663 348.388 694.975 348.148C695.311 347.908 695.587 347.632 695.803 347.32V341.596C694.675 342.244 693.811 342.916 693.211 343.612C692.611 344.308 692.311 345.16 692.311 346.168C692.311 346.912 692.455 347.488 692.743 347.896C693.031 348.304 693.439 348.508 693.967 348.508ZM713.616 331.192H719.016V332.74C720.408 331.468 721.884 330.832 723.444 330.832C725.004 330.856 726.144 331.492 726.864 332.74C727.584 333.988 727.944 335.524 727.944 337.348V345.484C727.944 347.548 727.548 349.216 726.756 350.488C725.964 351.736 724.8 352.36 723.264 352.36C721.896 352.36 720.48 351.712 719.016 350.416V358.84H713.616V331.192ZM720.852 348.724C721.956 348.724 722.508 347.716 722.508 345.7V336.988C722.508 335.164 721.968 334.252 720.888 334.252C720.312 334.252 719.688 334.516 719.016 335.044V348.112C719.664 348.52 720.276 348.724 720.852 348.724ZM735.511 352.36C734.551 352.36 733.711 352.12 732.991 351.64C732.271 351.16 731.719 350.536 731.335 349.768C730.975 348.976 730.795 348.16 730.795 347.32C730.795 345.712 731.191 344.392 731.983 343.36C732.775 342.328 733.723 341.524 734.827 340.948C735.955 340.372 737.443 339.748 739.291 339.076V337.132C739.291 336.388 739.183 335.824 738.967 335.44C738.775 335.056 738.415 334.864 737.887 334.864C737.359 334.864 736.987 335.032 736.771 335.368C736.555 335.704 736.423 336.184 736.375 336.808L736.267 338.248L731.155 338.032C731.251 335.56 731.887 333.748 733.063 332.596C734.239 331.42 736.003 330.832 738.355 330.832C740.395 330.832 741.931 331.396 742.963 332.524C743.995 333.652 744.511 335.2 744.511 337.168V346.852C744.511 348.484 744.631 350.2 744.871 352H740.011C739.915 351.304 739.759 350.308 739.543 349.012C739.255 349.972 738.763 350.776 738.067 351.424C737.395 352.048 736.543 352.36 735.511 352.36ZM737.455 348.508C737.815 348.508 738.151 348.388 738.463 348.148C738.799 347.908 739.075 347.632 739.291 347.32V341.596C738.163 342.244 737.299 342.916 736.699 343.612C736.099 344.308 735.799 345.16 735.799 346.168C735.799 346.912 735.943 347.488 736.231 347.896C736.519 348.304 736.927 348.508 737.455 348.508ZM748.176 331.192H753.612V334.54C754.332 333.292 755.028 332.38 755.7 331.804C756.396 331.228 757.2 330.94 758.112 330.94C758.328 330.94 758.604 330.964 758.94 331.012V336.556C758.316 336.268 757.668 336.124 756.996 336.124C755.676 336.124 754.548 336.796 753.612 338.14V352H748.176V331.192ZM767.657 352.252C765.569 352.252 764.117 351.784 763.301 350.848C762.509 349.912 762.113 348.484 762.113 346.564V334.756H760.061V331.192H762.113V324.928H767.621V331.192H770.645V334.756H767.621V346.024C767.621 347.248 768.233 347.86 769.457 347.86C770.105 347.86 770.621 347.812 771.005 347.716V351.964C769.733 352.156 768.617 352.252 767.657 352.252ZM499.687 400.36C497.431 400.36 495.691 399.76 494.467 398.56C493.267 397.36 492.667 395.62 492.667 393.34V385.852C492.667 383.572 493.267 381.832 494.467 380.632C495.691 379.432 497.431 378.832 499.687 378.832C501.943 378.832 503.671 379.432 504.871 380.632C506.095 381.832 506.707 383.572 506.707 385.852V393.34C506.707 395.62 506.095 397.36 504.871 398.56C503.671 399.76 501.943 400.36 499.687 400.36ZM499.723 396.688C500.347 396.688 500.767 396.448 500.983 395.968C501.223 395.464 501.343 394.72 501.343 393.736V385.492C501.343 384.508 501.223 383.764 500.983 383.26C500.767 382.756 500.347 382.504 499.723 382.504C499.075 382.504 498.631 382.768 498.391 383.296C498.151 383.8 498.031 384.532 498.031 385.492V393.736C498.031 394.696 498.151 395.428 498.391 395.932C498.631 396.436 499.075 396.688 499.723 396.688ZM510.872 382.9H508.784V379.192H510.872V377.752C510.872 376.36 511.004 375.232 511.268 374.368C511.532 373.504 512.048 372.832 512.816 372.352C513.608 371.872 514.772 371.632 516.308 371.632C517.292 371.632 518.216 371.692 519.08 371.812V375.844C518.48 375.724 518.048 375.664 517.784 375.664C516.8 375.664 516.308 376.276 516.308 377.5V379.192H519.08V382.9H516.308V400H510.872V382.9ZM536.557 400.252C534.469 400.252 533.017 399.784 532.201 398.848C531.409 397.912 531.013 396.484 531.013 394.564V382.756H528.961V379.192H531.013V372.928H536.521V379.192H539.545V382.756H536.521V394.024C536.521 395.248 537.133 395.86 538.357 395.86C539.005 395.86 539.521 395.812 539.905 395.716V399.964C538.633 400.156 537.517 400.252 536.557 400.252ZM542.74 370.84H548.176V381.1C549.688 379.588 551.392 378.832 553.288 378.832C554.464 378.832 555.364 379.276 555.988 380.164C556.612 381.052 556.924 382.192 556.924 383.584V400H551.524V384.448C551.524 383.872 551.428 383.452 551.236 383.188C551.044 382.9 550.72 382.756 550.264 382.756C549.664 382.756 548.968 383.056 548.176 383.656V400H542.74V370.84ZM567.115 400.36C564.835 400.36 563.095 399.736 561.895 398.488C560.719 397.24 560.131 395.44 560.131 393.088V386.104C560.131 383.752 560.731 381.952 561.931 380.704C563.131 379.456 564.859 378.832 567.115 378.832C569.443 378.832 571.147 379.456 572.227 380.704C573.307 381.952 573.847 383.8 573.847 386.248V389.884H565.531V393.916C565.531 394.804 565.663 395.452 565.927 395.86C566.215 396.268 566.623 396.472 567.151 396.472C568.231 396.472 568.771 395.692 568.771 394.132V392.116H573.811V393.916C573.811 396.004 573.235 397.6 572.083 398.704C570.931 399.808 569.275 400.36 567.115 400.36ZM568.771 387.292V385.276C568.771 384.364 568.639 383.716 568.375 383.332C568.111 382.924 567.691 382.72 567.115 382.72C566.563 382.72 566.155 382.936 565.891 383.368C565.651 383.8 565.531 384.568 565.531 385.672V387.292H568.771ZM590.263 400.36C589.303 400.36 588.463 400.12 587.743 399.64C587.023 399.16 586.471 398.536 586.087 397.768C585.727 396.976 585.547 396.16 585.547 395.32C585.547 393.712 585.943 392.392 586.735 391.36C587.527 390.328 588.475 389.524 589.579 388.948C590.707 388.372 592.195 387.748 594.043 387.076V385.132C594.043 384.388 593.935 383.824 593.719 383.44C593.527 383.056 593.167 382.864 592.639 382.864C592.111 382.864 591.739 383.032 591.523 383.368C591.307 383.704 591.175 384.184 591.127 384.808L591.019 386.248L585.907 386.032C586.003 383.56 586.639 381.748 587.815 380.596C588.991 379.42 590.755 378.832 593.107 378.832C595.147 378.832 596.683 379.396 597.715 380.524C598.747 381.652 599.263 383.2 599.263 385.168V394.852C599.263 396.484 599.383 398.2 599.623 400H594.763C594.667 399.304 594.511 398.308 594.295 397.012C594.007 397.972 593.515 398.776 592.819 399.424C592.147 400.048 591.295 400.36 590.263 400.36ZM592.207 396.508C592.567 396.508 592.903 396.388 593.215 396.148C593.551 395.908 593.827 395.632 594.043 395.32V389.596C592.915 390.244 592.051 390.916 591.451 391.612C590.851 392.308 590.551 393.16 590.551 394.168C590.551 394.912 590.695 395.488 590.983 395.896C591.271 396.304 591.679 396.508 592.207 396.508ZM602.928 379.192H608.364V382.54C609.084 381.292 609.78 380.38 610.452 379.804C611.148 379.228 611.952 378.94 612.864 378.94C613.08 378.94 613.356 378.964 613.692 379.012V384.556C613.068 384.268 612.42 384.124 611.748 384.124C610.428 384.124 609.3 384.796 608.364 386.14V400H602.928V379.192ZM622.409 400.252C620.321 400.252 618.869 399.784 618.053 398.848C617.261 397.912 616.865 396.484 616.865 394.564V382.756H614.813V379.192H616.865V372.928H622.373V379.192H625.397V382.756H622.373V394.024C622.373 395.248 622.985 395.86 624.209 395.86C624.857 395.86 625.373 395.812 625.757 395.716V399.964C624.485 400.156 623.369 400.252 622.409 400.252ZM637.556 379.192H642.956V380.74C644.348 379.468 645.824 378.832 647.384 378.832C648.944 378.856 650.084 379.492 650.804 380.74C651.524 381.988 651.884 383.524 651.884 385.348V393.484C651.884 395.548 651.488 397.216 650.696 398.488C649.904 399.736 648.74 400.36 647.204 400.36C645.836 400.36 644.42 399.712 642.956 398.416V406.84H637.556V379.192ZM644.792 396.724C645.896 396.724 646.448 395.716 646.448 393.7V384.988C646.448 383.164 645.908 382.252 644.828 382.252C644.252 382.252 643.628 382.516 642.956 383.044V396.112C643.604 396.52 644.216 396.724 644.792 396.724ZM655.346 379.192H660.782V382.54C661.502 381.292 662.198 380.38 662.87 379.804C663.566 379.228 664.37 378.94 665.282 378.94C665.498 378.94 665.774 378.964 666.11 379.012V384.556C665.486 384.268 664.838 384.124 664.166 384.124C662.846 384.124 661.718 384.796 660.782 386.14V400H655.346V379.192ZM675.187 400.36C672.931 400.36 671.191 399.76 669.967 398.56C668.767 397.36 668.167 395.62 668.167 393.34V385.852C668.167 383.572 668.767 381.832 669.967 380.632C671.191 379.432 672.931 378.832 675.187 378.832C677.443 378.832 679.171 379.432 680.371 380.632C681.595 381.832 682.207 383.572 682.207 385.852V393.34C682.207 395.62 681.595 397.36 680.371 398.56C679.171 399.76 677.443 400.36 675.187 400.36ZM675.223 396.688C675.847 396.688 676.267 396.448 676.483 395.968C676.723 395.464 676.843 394.72 676.843 393.736V385.492C676.843 384.508 676.723 383.764 676.483 383.26C676.267 382.756 675.847 382.504 675.223 382.504C674.575 382.504 674.131 382.768 673.891 383.296C673.651 383.8 673.531 384.532 673.531 385.492V393.736C673.531 394.696 673.651 395.428 673.891 395.932C674.131 396.436 674.575 396.688 675.223 396.688ZM686.012 371.704H691.484V375.772H686.012V371.704ZM686.156 406.228C685.1 406.228 684.14 406.084 683.276 405.796V401.908C683.924 401.98 684.272 402.016 684.32 402.016C685.448 402.016 686.012 401.38 686.012 400.108V379.192H691.448V400.756C691.448 402.436 690.992 403.768 690.08 404.752C689.168 405.736 687.86 406.228 686.156 406.228ZM701.694 400.36C699.414 400.36 697.674 399.736 696.474 398.488C695.298 397.24 694.71 395.44 694.71 393.088V386.104C694.71 383.752 695.31 381.952 696.51 380.704C697.71 379.456 699.438 378.832 701.694 378.832C704.022 378.832 705.726 379.456 706.806 380.704C707.886 381.952 708.426 383.8 708.426 386.248V389.884H700.11V393.916C700.11 394.804 700.242 395.452 700.506 395.86C700.794 396.268 701.202 396.472 701.73 396.472C702.81 396.472 703.35 395.692 703.35 394.132V392.116H708.39V393.916C708.39 396.004 707.814 397.6 706.662 398.704C705.51 399.808 703.854 400.36 701.694 400.36ZM703.35 387.292V385.276C703.35 384.364 703.218 383.716 702.954 383.332C702.69 382.924 702.27 382.72 701.694 382.72C701.142 382.72 700.734 382.936 700.47 383.368C700.23 383.8 700.11 384.568 700.11 385.672V387.292H703.35ZM718.181 400.36C715.901 400.36 714.173 399.724 712.997 398.452C711.821 397.18 711.233 395.392 711.233 393.088V386.068C711.233 383.74 711.821 381.952 712.997 380.704C714.173 379.456 715.901 378.832 718.181 378.832C720.413 378.832 722.093 379.36 723.221 380.416C724.373 381.472 724.949 383.056 724.949 385.168V387.148H719.729V385.024C719.729 384.112 719.609 383.488 719.369 383.152C719.129 382.792 718.745 382.612 718.217 382.612C717.641 382.612 717.233 382.828 716.993 383.26C716.777 383.692 716.669 384.448 716.669 385.528V393.736C716.669 394.816 716.789 395.56 717.029 395.968C717.293 396.376 717.689 396.58 718.217 396.58C718.769 396.58 719.153 396.388 719.369 396.004C719.609 395.62 719.729 395.008 719.729 394.168V391.648H724.949V393.952C724.949 396.04 724.373 397.636 723.221 398.74C722.069 399.82 720.389 400.36 718.181 400.36ZM734.311 400.252C732.223 400.252 730.771 399.784 729.955 398.848C729.163 397.912 728.767 396.484 728.767 394.564V382.756H726.715V379.192H728.767V372.928H734.275V379.192H737.299V382.756H734.275V394.024C734.275 395.248 734.887 395.86 736.111 395.86C736.759 395.86 737.275 395.812 737.659 395.716V399.964C736.387 400.156 735.271 400.252 734.311 400.252ZM741.034 379.156C741.85 379.132 742.402 378.844 742.69 378.292C743.002 377.74 743.158 376.9 743.158 375.772H740.782V370.84H745.75L745.714 374.728C745.642 376.864 745.294 378.424 744.67 379.408C744.07 380.392 743.014 380.896 741.502 380.92L741.034 379.156ZM748.198 379.156C749.014 379.132 749.566 378.844 749.854 378.292C750.166 377.74 750.322 376.9 750.322 375.772H747.946V370.84H752.914L752.878 374.728C752.806 376.864 752.458 378.424 751.834 379.408C751.234 380.392 750.178 380.896 748.666 380.92L748.198 379.156Z" fill="#F8AE39"/>
<path d="M958.745 328.528C958.793 326.416 959.129 324.868 959.753 323.884C960.377 322.9 961.445 322.396 962.957 322.372L963.425 324.1C962.609 324.124 962.045 324.424 961.733 325C961.445 325.552 961.301 326.392 961.301 327.52H963.677V332.416H958.709L958.745 328.528ZM965.909 328.528C965.957 326.416 966.293 324.868 966.917 323.884C967.541 322.9 968.609 322.396 970.121 322.372L970.589 324.1C969.773 324.124 969.209 324.424 968.897 325C968.609 325.552 968.465 326.392 968.465 327.52H970.841V332.416H965.873L965.909 328.528ZM975.588 322.84H981.888L985.488 341.236L989.304 322.84H995.388L995.928 352H991.608L991.14 332.2L987.396 352H983.724L979.872 332.092L979.44 352H975.084L975.588 322.84ZM1004.08 352.36C1003.12 352.36 1002.28 352.12 1001.56 351.64C1000.84 351.16 1000.28 350.536 999.899 349.768C999.539 348.976 999.359 348.16 999.359 347.32C999.359 345.712 999.755 344.392 1000.55 343.36C1001.34 342.328 1002.29 341.524 1003.39 340.948C1004.52 340.372 1006.01 339.748 1007.86 339.076V337.132C1007.86 336.388 1007.75 335.824 1007.53 335.44C1007.34 335.056 1006.98 334.864 1006.45 334.864C1005.92 334.864 1005.55 335.032 1005.34 335.368C1005.12 335.704 1004.99 336.184 1004.94 336.808L1004.83 338.248L999.719 338.032C999.815 335.56 1000.45 333.748 1001.63 332.596C1002.8 331.42 1004.57 330.832 1006.92 330.832C1008.96 330.832 1010.5 331.396 1011.53 332.524C1012.56 333.652 1013.08 335.2 1013.08 337.168V346.852C1013.08 348.484 1013.2 350.2 1013.44 352H1008.58C1008.48 351.304 1008.32 350.308 1008.11 349.012C1007.82 349.972 1007.33 350.776 1006.63 351.424C1005.96 352.048 1005.11 352.36 1004.08 352.36ZM1006.02 348.508C1006.38 348.508 1006.72 348.388 1007.03 348.148C1007.36 347.908 1007.64 347.632 1007.86 347.32V341.596C1006.73 342.244 1005.86 342.916 1005.26 343.612C1004.66 344.308 1004.36 345.16 1004.36 346.168C1004.36 346.912 1004.51 347.488 1004.8 347.896C1005.08 348.304 1005.49 348.508 1006.02 348.508ZM1016.67 322.84H1022.07V339.256L1027.29 331.192H1033.34L1027.94 339.652L1033.26 352H1027.4L1023.69 341.92L1022.07 344.08V352H1016.67V322.84ZM1041.68 352.36C1039.4 352.36 1037.66 351.736 1036.46 350.488C1035.28 349.24 1034.69 347.44 1034.69 345.088V338.104C1034.69 335.752 1035.29 333.952 1036.49 332.704C1037.69 331.456 1039.42 330.832 1041.68 330.832C1044.01 330.832 1045.71 331.456 1046.79 332.704C1047.87 333.952 1048.41 335.8 1048.41 338.248V341.884H1040.09V345.916C1040.09 346.804 1040.23 347.452 1040.49 347.86C1040.78 348.268 1041.19 348.472 1041.71 348.472C1042.79 348.472 1043.33 347.692 1043.33 346.132V344.116H1048.37V345.916C1048.37 348.004 1047.8 349.6 1046.65 350.704C1045.49 351.808 1043.84 352.36 1041.68 352.36ZM1043.33 339.292V337.276C1043.33 336.364 1043.2 335.716 1042.94 335.332C1042.67 334.924 1042.25 334.72 1041.68 334.72C1041.13 334.72 1040.72 334.936 1040.45 335.368C1040.21 335.8 1040.09 336.568 1040.09 337.672V339.292H1043.33ZM1064.83 352.36C1063.87 352.36 1063.03 352.12 1062.31 351.64C1061.59 351.16 1061.03 350.536 1060.65 349.768C1060.29 348.976 1060.11 348.16 1060.11 347.32C1060.11 345.712 1060.51 344.392 1061.3 343.36C1062.09 342.328 1063.04 341.524 1064.14 340.948C1065.27 340.372 1066.76 339.748 1068.61 339.076V337.132C1068.61 336.388 1068.5 335.824 1068.28 335.44C1068.09 335.056 1067.73 334.864 1067.2 334.864C1066.67 334.864 1066.3 335.032 1066.09 335.368C1065.87 335.704 1065.74 336.184 1065.69 336.808L1065.58 338.248L1060.47 338.032C1060.57 335.56 1061.2 333.748 1062.38 332.596C1063.55 331.42 1065.32 330.832 1067.67 330.832C1069.71 330.832 1071.25 331.396 1072.28 332.524C1073.31 333.652 1073.83 335.2 1073.83 337.168V346.852C1073.83 348.484 1073.95 350.2 1074.19 352H1069.33C1069.23 351.304 1069.07 350.308 1068.86 349.012C1068.57 349.972 1068.08 350.776 1067.38 351.424C1066.71 352.048 1065.86 352.36 1064.83 352.36ZM1066.77 348.508C1067.13 348.508 1067.47 348.388 1067.78 348.148C1068.11 347.908 1068.39 347.632 1068.61 347.32V341.596C1067.48 342.244 1066.61 342.916 1066.01 343.612C1065.41 344.308 1065.11 345.16 1065.11 346.168C1065.11 346.912 1065.26 347.488 1065.55 347.896C1065.83 348.304 1066.24 348.508 1066.77 348.508ZM1087.17 334.9H1085.09V331.192H1087.17V329.752C1087.17 327.712 1087.57 326.176 1088.36 325.144C1089.18 324.112 1090.59 323.596 1092.61 323.596C1093.31 323.596 1094.11 323.668 1095.02 323.812V327.592C1094.69 327.52 1094.37 327.484 1094.09 327.484C1093.58 327.484 1093.21 327.628 1092.97 327.916C1092.73 328.204 1092.61 328.708 1092.61 329.428V331.192H1102.04V352H1096.64V334.9H1092.61V352H1087.17V334.9ZM1097 323.704H1102.04V327.772H1097V323.704ZM1105.83 331.192H1111.23V333.28C1112.91 331.648 1114.59 330.832 1116.27 330.832C1117.47 330.832 1118.38 331.276 1119 332.164C1119.65 333.052 1119.97 334.192 1119.97 335.584V352H1114.54V336.448C1114.54 335.872 1114.44 335.452 1114.25 335.188C1114.06 334.9 1113.73 334.756 1113.28 334.756C1112.73 334.756 1112.04 335.044 1111.23 335.62V352H1105.83V331.192ZM1127.76 352.36C1126.8 352.36 1125.96 352.12 1125.24 351.64C1124.52 351.16 1123.96 350.536 1123.58 349.768C1123.22 348.976 1123.04 348.16 1123.04 347.32C1123.04 345.712 1123.44 344.392 1124.23 343.36C1125.02 342.328 1125.97 341.524 1127.07 340.948C1128.2 340.372 1129.69 339.748 1131.54 339.076V337.132C1131.54 336.388 1131.43 335.824 1131.21 335.44C1131.02 335.056 1130.66 334.864 1130.13 334.864C1129.6 334.864 1129.23 335.032 1129.02 335.368C1128.8 335.704 1128.67 336.184 1128.62 336.808L1128.51 338.248L1123.4 338.032C1123.5 335.56 1124.13 333.748 1125.31 332.596C1126.48 331.42 1128.25 330.832 1130.6 330.832C1132.64 330.832 1134.18 331.396 1135.21 332.524C1136.24 333.652 1136.76 335.2 1136.76 337.168V346.852C1136.76 348.484 1136.88 350.2 1137.12 352H1132.26C1132.16 351.304 1132 350.308 1131.79 349.012C1131.5 349.972 1131.01 350.776 1130.31 351.424C1129.64 352.048 1128.79 352.36 1127.76 352.36ZM1129.7 348.508C1130.06 348.508 1130.4 348.388 1130.71 348.148C1131.04 347.908 1131.32 347.632 1131.54 347.32V341.596C1130.41 342.244 1129.54 342.916 1128.94 343.612C1128.34 344.308 1128.04 345.16 1128.04 346.168C1128.04 346.912 1128.19 347.488 1128.48 347.896C1128.76 348.304 1129.17 348.508 1129.7 348.508ZM1140.35 331.192H1145.75V333.28C1147.43 331.648 1149.11 330.832 1150.79 330.832C1151.99 330.832 1152.9 331.276 1153.52 332.164C1154.17 333.052 1154.5 334.192 1154.5 335.584V352H1149.06V336.448C1149.06 335.872 1148.96 335.452 1148.77 335.188C1148.58 334.9 1148.26 334.756 1147.8 334.756C1147.25 334.756 1146.56 335.044 1145.75 335.62V352H1140.35V331.192ZM1164.62 352.36C1162.34 352.36 1160.61 351.724 1159.43 350.452C1158.26 349.18 1157.67 347.392 1157.67 345.088V338.068C1157.67 335.74 1158.26 333.952 1159.43 332.704C1160.61 331.456 1162.34 330.832 1164.62 330.832C1166.85 330.832 1168.53 331.36 1169.66 332.416C1170.81 333.472 1171.39 335.056 1171.39 337.168V339.148H1166.17V337.024C1166.17 336.112 1166.05 335.488 1165.81 335.152C1165.57 334.792 1165.18 334.612 1164.65 334.612C1164.08 334.612 1163.67 334.828 1163.43 335.26C1163.21 335.692 1163.11 336.448 1163.11 337.528V345.736C1163.11 346.816 1163.23 347.56 1163.47 347.968C1163.73 348.376 1164.13 348.58 1164.65 348.58C1165.21 348.58 1165.59 348.388 1165.81 348.004C1166.05 347.62 1166.17 347.008 1166.17 346.168V343.648H1171.39V345.952C1171.39 348.04 1170.81 349.636 1169.66 350.74C1168.51 351.82 1166.83 352.36 1164.62 352.36ZM1174.56 323.704H1180.03V327.772H1174.56V323.704ZM1174.59 331.192H1180.03V352H1174.59V331.192ZM1187.98 352.36C1187.02 352.36 1186.18 352.12 1185.46 351.64C1184.74 351.16 1184.19 350.536 1183.8 349.768C1183.44 348.976 1183.26 348.16 1183.26 347.32C1183.26 345.712 1183.66 344.392 1184.45 343.36C1185.24 342.328 1186.19 341.524 1187.29 340.948C1188.42 340.372 1189.91 339.748 1191.76 339.076V337.132C1191.76 336.388 1191.65 335.824 1191.43 335.44C1191.24 335.056 1190.88 334.864 1190.35 334.864C1189.83 334.864 1189.45 335.032 1189.24 335.368C1189.02 335.704 1188.89 336.184 1188.84 336.808L1188.73 338.248L1183.62 338.032C1183.72 335.56 1184.35 333.748 1185.53 332.596C1186.71 331.42 1188.47 330.832 1190.82 330.832C1192.86 330.832 1194.4 331.396 1195.43 332.524C1196.46 333.652 1196.98 335.2 1196.98 337.168V346.852C1196.98 348.484 1197.1 350.2 1197.34 352H1192.48C1192.38 351.304 1192.23 350.308 1192.01 349.012C1191.72 349.972 1191.23 350.776 1190.53 351.424C1189.86 352.048 1189.01 352.36 1187.98 352.36ZM1189.92 348.508C1190.28 348.508 1190.62 348.388 1190.93 348.148C1191.27 347.908 1191.54 347.632 1191.76 347.32V341.596C1190.63 342.244 1189.77 342.916 1189.17 343.612C1188.57 344.308 1188.27 345.16 1188.27 346.168C1188.27 346.912 1188.41 347.488 1188.7 347.896C1188.99 348.304 1189.39 348.508 1189.92 348.508ZM1200.82 322.84H1206.22V352H1200.82V322.84ZM905.963 400.36C902.699 400.36 901.067 398.068 901.067 393.484V385.852C901.067 383.716 901.475 382.012 902.291 380.74C903.107 379.468 904.331 378.832 905.963 378.832C907.331 378.832 908.651 379.384 909.923 380.488V370.84H915.359V400H909.923V398.452C908.651 399.724 907.331 400.36 905.963 400.36ZM908.195 396.76C908.723 396.76 909.299 396.556 909.923 396.148V382.9C909.299 382.54 908.723 382.36 908.195 382.36C907.619 382.36 907.199 382.612 906.935 383.116C906.671 383.596 906.539 384.244 906.539 385.06V393.88C906.539 395.8 907.091 396.76 908.195 396.76ZM925.663 400.36C923.407 400.36 921.667 399.76 920.443 398.56C919.243 397.36 918.643 395.62 918.643 393.34V385.852C918.643 383.572 919.243 381.832 920.443 380.632C921.667 379.432 923.407 378.832 925.663 378.832C927.919 378.832 929.647 379.432 930.847 380.632C932.071 381.832 932.683 383.572 932.683 385.852V393.34C932.683 395.62 932.071 397.36 930.847 398.56C929.647 399.76 927.919 400.36 925.663 400.36ZM925.699 396.688C926.323 396.688 926.743 396.448 926.959 395.968C927.199 395.464 927.319 394.72 927.319 393.736V385.492C927.319 384.508 927.199 383.764 926.959 383.26C926.743 382.756 926.323 382.504 925.699 382.504C925.051 382.504 924.607 382.768 924.367 383.296C924.127 383.8 924.007 384.532 924.007 385.492V393.736C924.007 394.696 924.127 395.428 924.367 395.932C924.607 396.436 925.051 396.688 925.699 396.688ZM936.02 379.192H941.42V381.28C943.1 379.648 944.78 378.832 946.46 378.832C947.66 378.832 948.572 379.276 949.196 380.164C949.844 381.052 950.168 382.192 950.168 383.584V400H944.732V384.448C944.732 383.872 944.636 383.452 944.444 383.188C944.252 382.9 943.928 382.756 943.472 382.756C942.92 382.756 942.236 383.044 941.42 383.62V400H936.02V379.192ZM957.95 400.36C956.99 400.36 956.15 400.12 955.43 399.64C954.71 399.16 954.158 398.536 953.774 397.768C953.414 396.976 953.234 396.16 953.234 395.32C953.234 393.712 953.63 392.392 954.422 391.36C955.214 390.328 956.162 389.524 957.266 388.948C958.394 388.372 959.882 387.748 961.73 387.076V385.132C961.73 384.388 961.622 383.824 961.406 383.44C961.214 383.056 960.854 382.864 960.326 382.864C959.798 382.864 959.426 383.032 959.21 383.368C958.994 383.704 958.862 384.184 958.814 384.808L958.706 386.248L953.594 386.032C953.69 383.56 954.326 381.748 955.502 380.596C956.678 379.42 958.442 378.832 960.794 378.832C962.834 378.832 964.37 379.396 965.402 380.524C966.434 381.652 966.95 383.2 966.95 385.168V394.852C966.95 396.484 967.07 398.2 967.31 400H962.45C962.354 399.304 962.198 398.308 961.982 397.012C961.694 397.972 961.202 398.776 960.506 399.424C959.834 400.048 958.982 400.36 957.95 400.36ZM959.894 396.508C960.254 396.508 960.59 396.388 960.902 396.148C961.238 395.908 961.514 395.632 961.73 395.32V389.596C960.602 390.244 959.738 390.916 959.138 391.612C958.538 392.308 958.238 393.16 958.238 394.168C958.238 394.912 958.382 395.488 958.67 395.896C958.958 396.304 959.366 396.508 959.894 396.508ZM976.666 400.252C974.578 400.252 973.126 399.784 972.31 398.848C971.518 397.912 971.122 396.484 971.122 394.564V382.756H969.07V379.192H971.122V372.928H976.63V379.192H979.654V382.756H976.63V394.024C976.63 395.248 977.242 395.86 978.466 395.86C979.114 395.86 979.63 395.812 980.014 395.716V399.964C978.742 400.156 977.626 400.252 976.666 400.252ZM982.849 371.704H988.321V375.772H982.849V371.704ZM982.885 379.192H988.321V400H982.885V379.192ZM998.683 400.36C996.427 400.36 994.687 399.76 993.463 398.56C992.263 397.36 991.663 395.62 991.663 393.34V385.852C991.663 383.572 992.263 381.832 993.463 380.632C994.687 379.432 996.427 378.832 998.683 378.832C1000.94 378.832 1002.67 379.432 1003.87 380.632C1005.09 381.832 1005.7 383.572 1005.7 385.852V393.34C1005.7 395.62 1005.09 397.36 1003.87 398.56C1002.67 399.76 1000.94 400.36 998.683 400.36ZM998.719 396.688C999.343 396.688 999.763 396.448 999.979 395.968C1000.22 395.464 1000.34 394.72 1000.34 393.736V385.492C1000.34 384.508 1000.22 383.764 999.979 383.26C999.763 382.756 999.343 382.504 998.719 382.504C998.071 382.504 997.627 382.768 997.387 383.296C997.147 383.8 997.027 384.532 997.027 385.492V393.736C997.027 394.696 997.147 395.428 997.387 395.932C997.627 396.436 998.071 396.688 998.719 396.688ZM1009.04 379.192H1014.44V381.28C1016.12 379.648 1017.8 378.832 1019.48 378.832C1020.68 378.832 1021.59 379.276 1022.22 380.164C1022.86 381.052 1023.19 382.192 1023.19 383.584V400H1017.75V384.448C1017.75 383.872 1017.66 383.452 1017.46 383.188C1017.27 382.9 1016.95 382.756 1016.49 382.756C1015.94 382.756 1015.26 383.044 1014.44 383.62V400H1009.04V379.192ZM1042.02 400.252C1039.93 400.252 1038.48 399.784 1037.67 398.848C1036.87 397.912 1036.48 396.484 1036.48 394.564V382.756H1034.43V379.192H1036.48V372.928H1041.99V379.192H1045.01V382.756H1041.99V394.024C1041.99 395.248 1042.6 395.86 1043.82 395.86C1044.47 395.86 1044.99 395.812 1045.37 395.716V399.964C1044.1 400.156 1042.98 400.252 1042.02 400.252ZM1054.76 400.36C1052.5 400.36 1050.76 399.76 1049.54 398.56C1048.34 397.36 1047.74 395.62 1047.74 393.34V385.852C1047.74 383.572 1048.34 381.832 1049.54 380.632C1050.76 379.432 1052.5 378.832 1054.76 378.832C1057.01 378.832 1058.74 379.432 1059.94 380.632C1061.16 381.832 1061.78 383.572 1061.78 385.852V393.34C1061.78 395.62 1061.16 397.36 1059.94 398.56C1058.74 399.76 1057.01 400.36 1054.76 400.36ZM1054.79 396.688C1055.42 396.688 1055.84 396.448 1056.05 395.968C1056.29 395.464 1056.41 394.72 1056.41 393.736V385.492C1056.41 384.508 1056.29 383.764 1056.05 383.26C1055.84 382.756 1055.42 382.504 1054.79 382.504C1054.14 382.504 1053.7 382.768 1053.46 383.296C1053.22 383.8 1053.1 384.532 1053.1 385.492V393.736C1053.1 394.696 1053.22 395.428 1053.46 395.932C1053.7 396.436 1054.14 396.688 1054.79 396.688ZM1080.7 400.36C1078.45 400.36 1076.71 399.76 1075.48 398.56C1074.28 397.36 1073.68 395.62 1073.68 393.34V385.852C1073.68 383.572 1074.28 381.832 1075.48 380.632C1076.71 379.432 1078.45 378.832 1080.7 378.832C1082.96 378.832 1084.69 379.432 1085.89 380.632C1087.11 381.832 1087.72 383.572 1087.72 385.852V393.34C1087.72 395.62 1087.11 397.36 1085.89 398.56C1084.69 399.76 1082.96 400.36 1080.7 400.36ZM1080.74 396.688C1081.36 396.688 1081.78 396.448 1082 395.968C1082.24 395.464 1082.36 394.72 1082.36 393.736V385.492C1082.36 384.508 1082.24 383.764 1082 383.26C1081.78 382.756 1081.36 382.504 1080.74 382.504C1080.09 382.504 1079.65 382.768 1079.41 383.296C1079.17 383.8 1079.05 384.532 1079.05 385.492V393.736C1079.05 394.696 1079.17 395.428 1079.41 395.932C1079.65 396.436 1080.09 396.688 1080.74 396.688ZM1094.55 400.36C1093.35 400.36 1092.43 399.916 1091.78 399.028C1091.16 398.14 1090.84 397 1090.84 395.608V379.192H1096.28V394.852C1096.28 395.428 1096.38 395.86 1096.57 396.148C1096.78 396.436 1097.13 396.58 1097.61 396.58C1098.12 396.58 1098.75 396.316 1099.52 395.788V379.192H1104.96V400H1099.52V398.056C1097.86 399.592 1096.21 400.36 1094.55 400.36ZM1108.78 379.192H1114.22V382.54C1114.94 381.292 1115.63 380.38 1116.3 379.804C1117 379.228 1117.8 378.94 1118.72 378.94C1118.93 378.94 1119.21 378.964 1119.54 379.012V384.556C1118.92 384.268 1118.27 384.124 1117.6 384.124C1116.28 384.124 1115.15 384.796 1114.22 386.14V400H1108.78V379.192ZM1131.03 379.192H1136.43V380.74C1137.82 379.468 1139.3 378.832 1140.86 378.832C1142.42 378.856 1143.56 379.492 1144.28 380.74C1145 381.988 1145.36 383.524 1145.36 385.348V393.484C1145.36 395.548 1144.96 397.216 1144.17 398.488C1143.38 399.736 1142.22 400.36 1140.68 400.36C1139.31 400.36 1137.9 399.712 1136.43 398.416V406.84H1131.03V379.192ZM1138.27 396.724C1139.37 396.724 1139.92 395.716 1139.92 393.7V384.988C1139.92 383.164 1139.38 382.252 1138.3 382.252C1137.73 382.252 1137.1 382.516 1136.43 383.044V396.112C1137.08 396.52 1137.69 396.724 1138.27 396.724ZM1148.82 379.192H1154.26V382.54C1154.98 381.292 1155.67 380.38 1156.35 379.804C1157.04 379.228 1157.85 378.94 1158.76 378.94C1158.97 378.94 1159.25 378.964 1159.59 379.012V384.556C1158.96 384.268 1158.31 384.124 1157.64 384.124C1156.32 384.124 1155.19 384.796 1154.26 386.14V400H1148.82V379.192ZM1168.66 400.36C1166.41 400.36 1164.67 399.76 1163.44 398.56C1162.24 397.36 1161.64 395.62 1161.64 393.34V385.852C1161.64 383.572 1162.24 381.832 1163.44 380.632C1164.67 379.432 1166.41 378.832 1168.66 378.832C1170.92 378.832 1172.65 379.432 1173.85 380.632C1175.07 381.832 1175.68 383.572 1175.68 385.852V393.34C1175.68 395.62 1175.07 397.36 1173.85 398.56C1172.65 399.76 1170.92 400.36 1168.66 400.36ZM1168.7 396.688C1169.32 396.688 1169.74 396.448 1169.96 395.968C1170.2 395.464 1170.32 394.72 1170.32 393.736V385.492C1170.32 384.508 1170.2 383.764 1169.96 383.26C1169.74 382.756 1169.32 382.504 1168.7 382.504C1168.05 382.504 1167.61 382.768 1167.37 383.296C1167.13 383.8 1167.01 384.532 1167.01 385.492V393.736C1167.01 394.696 1167.13 395.428 1167.37 395.932C1167.61 396.436 1168.05 396.688 1168.7 396.688ZM1185.46 407.02C1183.16 407.02 1181.34 406.672 1179.99 405.976C1178.67 405.28 1178.01 404.248 1178.01 402.88C1178.01 401.056 1179.08 399.676 1181.22 398.74C1179.39 398.26 1178.48 397.24 1178.48 395.68C1178.48 394.912 1178.66 394.228 1179.02 393.628C1179.4 393.028 1179.99 392.38 1180.78 391.684C1180.09 391.084 1179.56 390.34 1179.2 389.452C1178.86 388.54 1178.7 387.436 1178.7 386.14C1178.7 383.764 1179.3 381.952 1180.5 380.704C1181.72 379.456 1183.48 378.832 1185.79 378.832C1187.92 378.832 1189.52 379.432 1190.58 380.632C1190.82 380.224 1191.16 379.828 1191.62 379.444C1192.08 379.06 1192.59 378.736 1193.17 378.472L1193.89 378.112L1195.18 380.848C1194.82 380.968 1194.28 381.184 1193.56 381.496C1192.84 381.784 1192.28 382.048 1191.87 382.288C1192.11 382.792 1192.29 383.392 1192.41 384.088C1192.56 384.784 1192.63 385.48 1192.63 386.176C1192.63 388.456 1192.05 390.22 1190.9 391.468C1189.77 392.716 1188.07 393.34 1185.79 393.34C1184.59 393.34 1183.52 393.172 1182.58 392.836C1182.2 393.316 1182.01 393.76 1182.01 394.168C1182.01 394.456 1182.15 394.684 1182.44 394.852C1182.73 395.02 1183.22 395.14 1183.92 395.212L1188.92 395.752C1192.33 396.136 1194.03 397.924 1194.03 401.116C1194.03 403.108 1193.35 404.584 1191.98 405.544C1190.64 406.528 1188.46 407.02 1185.46 407.02ZM1185.79 390.028C1186.51 390.028 1186.99 389.752 1187.23 389.2C1187.47 388.624 1187.59 387.604 1187.59 386.14C1187.59 384.652 1187.47 383.62 1187.23 383.044C1186.99 382.444 1186.51 382.144 1185.79 382.144C1185.07 382.144 1184.58 382.444 1184.31 383.044C1184.07 383.644 1183.95 384.676 1183.95 386.14C1183.95 387.532 1184.07 388.528 1184.31 389.128C1184.58 389.728 1185.07 390.028 1185.79 390.028ZM1186.15 403.06C1187.54 403.06 1188.56 402.928 1189.21 402.664C1189.88 402.424 1190.22 401.98 1190.22 401.332C1190.22 400.78 1190 400.372 1189.57 400.108C1189.14 399.868 1188.33 399.7 1187.16 399.604L1183.41 399.208C1183 399.568 1182.68 399.904 1182.44 400.216C1182.22 400.552 1182.12 400.912 1182.12 401.296C1182.12 401.896 1182.43 402.34 1183.05 402.628C1183.68 402.916 1184.71 403.06 1186.15 403.06ZM1196.64 379.192H1202.07V382.54C1202.79 381.292 1203.49 380.38 1204.16 379.804C1204.86 379.228 1205.66 378.94 1206.57 378.94C1206.79 378.94 1207.06 378.964 1207.4 379.012V384.556C1206.78 384.268 1206.13 384.124 1205.46 384.124C1204.14 384.124 1203.01 384.796 1202.07 386.14V400H1196.64V379.192ZM1213.99 400.36C1213.03 400.36 1212.19 400.12 1211.47 399.64C1210.75 399.16 1210.2 398.536 1209.82 397.768C1209.46 396.976 1209.28 396.16 1209.28 395.32C1209.28 393.712 1209.67 392.392 1210.47 391.36C1211.26 390.328 1212.21 389.524 1213.31 388.948C1214.44 388.372 1215.93 387.748 1217.77 387.076V385.132C1217.77 384.388 1217.67 383.824 1217.45 383.44C1217.26 383.056 1216.9 382.864 1216.37 382.864C1215.84 382.864 1215.47 383.032 1215.25 383.368C1215.04 383.704 1214.91 384.184 1214.86 384.808L1214.75 386.248L1209.64 386.032C1209.73 383.56 1210.37 381.748 1211.55 380.596C1212.72 379.42 1214.49 378.832 1216.84 378.832C1218.88 378.832 1220.41 379.396 1221.45 380.524C1222.48 381.652 1222.99 383.2 1222.99 385.168V394.852C1222.99 396.484 1223.11 398.2 1223.35 400H1218.49C1218.4 399.304 1218.24 398.308 1218.03 397.012C1217.74 397.972 1217.25 398.776 1216.55 399.424C1215.88 400.048 1215.03 400.36 1213.99 400.36ZM1215.94 396.508C1216.3 396.508 1216.63 396.388 1216.95 396.148C1217.28 395.908 1217.56 395.632 1217.77 395.32V389.596C1216.65 390.244 1215.78 390.916 1215.18 391.612C1214.58 392.308 1214.28 393.16 1214.28 394.168C1214.28 394.912 1214.43 395.488 1214.71 395.896C1215 396.304 1215.41 396.508 1215.94 396.508ZM1226.59 379.192H1231.88V380.92C1233.27 379.504 1234.9 378.796 1236.77 378.796C1237.59 378.796 1238.3 379.012 1238.9 379.444C1239.52 379.852 1239.99 380.476 1240.3 381.316C1241.79 379.636 1243.55 378.796 1245.59 378.796C1246.79 378.796 1247.74 379.24 1248.44 380.128C1249.16 380.992 1249.52 382.216 1249.52 383.8V400H1244.26V384.34C1244.26 383.668 1244.14 383.2 1243.9 382.936C1243.69 382.648 1243.35 382.504 1242.89 382.504C1242.58 382.504 1242.22 382.588 1241.81 382.756C1241.43 382.924 1241.06 383.164 1240.7 383.476V383.8V400H1235.44V384.34C1235.44 383.668 1235.32 383.2 1235.08 382.936C1234.87 382.648 1234.53 382.504 1234.07 382.504C1233.76 382.504 1233.4 382.588 1232.99 382.756C1232.61 382.924 1232.24 383.164 1231.88 383.476V400H1226.59V379.192ZM1253.71 379.156C1254.52 379.132 1255.07 378.844 1255.36 378.292C1255.67 377.74 1255.83 376.9 1255.83 375.772H1253.45V370.84H1258.42L1258.39 374.728C1258.31 376.864 1257.97 378.424 1257.34 379.408C1256.74 380.392 1255.69 380.896 1254.17 380.92L1253.71 379.156ZM1260.87 379.156C1261.69 379.132 1262.24 378.844 1262.53 378.292C1262.84 377.74 1262.99 376.9 1262.99 375.772H1260.62V370.84H1265.59L1265.55 374.728C1265.48 376.864 1265.13 378.424 1264.51 379.408C1263.91 380.392 1262.85 380.896 1261.34 380.92L1260.87 379.156Z" fill="#F8AE39"/>
<g clip-path="url(#clip0)">
<path d="M98.5286 128.515C100.337 126.707 103.268 126.707 105.075 128.515C106.883 130.323 106.883 133.254 105.075 135.061C105.004 135.132 104.93 135.205 104.858 135.272C103.965 136.108 102.828 136.522 101.694 136.522C100.459 136.522 99.2261 136.03 98.3152 135.057C96.5673 133.192 96.6631 130.262 98.5286 128.515Z" fill="#696969"/>
<path d="M107.933 120.912C110.583 119.113 113.303 117.508 116.018 116.141C131.38 108.411 147.658 106.86 163.095 111.653C165.536 112.412 166.901 115.006 166.142 117.447C165.384 119.889 162.792 121.252 160.349 120.495C147.247 116.425 133.357 117.78 120.181 124.41C117.856 125.581 115.419 127.02 113.133 128.572C112.336 129.112 111.432 129.372 110.537 129.372C109.055 129.372 107.598 128.661 106.703 127.342C105.267 125.227 105.818 122.348 107.933 120.912Z" fill="#696969"/>
<path d="M65.8208 180.815C67.7187 176.834 70.8612 170.241 70.9177 168.061C65.5047 154.718 67.4794 139.954 76.4955 126.448C90.3604 105.677 118.777 90.6004 144.063 90.6004C157.43 90.6004 170.482 93.7878 182.224 99.8725C185.593 81.4139 201.781 67.374 221.198 67.374C243.049 67.374 260.826 85.1508 260.826 107.001C260.826 120.903 253.741 133.544 241.875 140.813C238.454 142.909 237.68 144.721 237.405 147.689V163.494V174.776C237.405 179.944 233.201 184.149 228.034 184.149H226.46C223.918 204.413 214.111 222.81 198.544 236.348C198.397 236.806 197.969 238.949 199.809 245.345C201.241 250.328 203.44 255.862 205.379 260.746C206.677 264.013 207.798 266.836 208.476 268.969C208.922 270.376 208.672 271.912 207.8 273.104C206.928 274.295 205.54 275 204.064 275H137.989C135.818 275 132.836 274.028 130.959 269.397C130.142 267.381 129.609 264.957 129.044 262.389C128.494 259.888 127.204 254.029 125.922 253.321C125.921 253.321 125.846 253.309 125.665 253.336C125.427 253.374 125.187 253.392 124.947 253.392C118.027 253.392 112.373 253.706 107.384 253.983C92.7526 254.794 83.9207 255.285 76.1733 244.125C72.2332 238.449 72.6799 230.172 73.1525 221.408C73.396 216.891 73.6473 212.229 73.2011 208.353C72.3934 207.557 70.3706 206.168 69.1022 205.298C64.7386 202.301 60.6175 199.471 60.6175 195.168C60.6161 191.898 62.594 187.583 65.8208 180.815ZM237.038 132.918C246.136 127.345 251.567 117.657 251.567 107.001C251.567 90.2546 237.943 76.6313 221.197 76.6313C204.451 76.6313 190.827 90.2551 190.827 107.001C190.827 117.657 196.258 127.345 205.357 132.919C209.681 135.569 212.251 138.66 213.47 142.836L221.199 142.833L228.923 142.836C230.144 138.66 232.714 135.569 237.038 132.918ZM214.247 152.095V158.864H228.147V152.095H214.247V152.095ZM228.033 174.891C228.085 174.891 228.147 174.827 228.147 174.775V168.122H214.247V174.775C214.247 174.828 214.31 174.891 214.362 174.891H228.033ZM74.3417 197.665C78.3258 200.402 81.7669 202.764 82.2742 206.34C82.9713 211.244 82.6788 216.664 82.3964 221.905C82.0455 228.407 81.6484 235.778 83.7777 238.845C88.3834 245.48 92.367 245.545 106.871 244.739C111.656 244.473 117.594 244.144 124.634 244.134C127.338 243.815 131.913 244.323 134.965 250.257C136.516 253.271 137.349 257.057 138.084 260.398C138.454 262.077 138.973 264.436 139.459 265.741H197.4C197.197 265.23 196.988 264.703 196.773 264.162C190.105 247.372 185.882 235.057 192.31 229.499C205.936 217.715 214.625 201.757 217.117 184.149H214.361C209.193 184.149 204.989 179.944 204.989 174.775V163.493V147.698C204.714 144.724 203.943 142.911 200.519 140.813C189.562 134.1 182.687 122.807 181.698 110.17C170.336 103.419 157.377 99.8577 144.063 99.8577C122.007 99.8577 96.2692 113.499 84.1947 131.587C79.0196 139.34 74.0209 151.4 79.5978 164.829C81.4142 169.202 78.7211 175.266 74.1774 184.798C72.7063 187.884 70.577 192.351 70.0132 194.437C70.9695 195.35 73.0257 196.762 74.3417 197.665Z" fill="#696969"/>
<path d="M198.491 100.461C199.858 95.3947 203.256 91.337 208.319 88.7249C210.591 87.5542 213.382 88.4448 214.555 90.7176C215.727 92.9899 214.835 95.7816 212.563 96.9532C209.799 98.3789 208.119 100.316 207.43 102.872C206.338 106.92 207.989 111.299 208.714 112.436C210.089 114.593 209.455 117.454 207.299 118.828C206.528 119.321 205.667 119.554 204.815 119.554C203.286 119.554 201.79 118.798 200.908 117.413C198.933 114.317 196.661 107.246 198.491 100.461Z" fill="#696969"/>
<path d="M221.197 38C223.754 38 225.826 40.0733 225.826 42.6289V55.825C225.826 58.3806 223.754 60.4539 221.197 60.4539C218.641 60.4539 216.568 58.3806 216.568 55.825V42.6289C216.568 40.0733 218.641 38 221.197 38Z" fill="#696969"/>
<path d="M272.558 102.557H285.754C288.31 102.557 290.383 104.63 290.383 107.186C290.383 109.743 288.31 111.815 285.754 111.815H272.557C270.001 111.815 267.929 109.743 267.929 107.186C267.929 104.63 270.001 102.557 272.558 102.557Z" fill="#696969"/>
<path d="M242.871 60.387L249.467 48.9638C250.745 46.7498 253.577 45.992 255.79 47.2696C258.004 48.5481 258.763 51.3787 257.484 53.5927L250.888 65.0159C250.03 66.5013 248.475 67.3313 246.875 67.3313C246.09 67.3313 245.293 67.1313 244.565 66.7101C242.351 65.4316 241.592 62.601 242.871 60.387Z" fill="#696969"/>
<path d="M263.367 77.4964L274.791 70.9003C277.005 69.6227 279.836 70.3814 281.115 72.5944C282.393 74.8084 281.634 77.639 279.42 78.9175L267.996 85.5137C267.267 85.9349 266.471 86.1349 265.686 86.1349C264.086 86.1349 262.53 85.305 261.673 83.8195C260.394 81.6065 261.153 78.775 263.367 77.4964Z" fill="#696969"/>
<path d="M161.278 72.5936C162.557 70.3796 165.387 69.6209 167.601 70.8994L179.025 77.4956C181.239 78.7741 181.998 81.6056 180.719 83.8187C179.862 85.3041 178.306 86.1341 176.707 86.1341C175.922 86.1341 175.125 85.9341 174.396 85.5129L162.972 78.9167C160.758 77.6382 159.999 74.8076 161.278 72.5936Z" fill="#696969"/>
<path d="M261.67 130.554C262.948 128.34 265.778 127.582 267.992 128.859L279.42 135.455C281.634 136.733 282.393 139.564 281.115 141.778C280.258 143.263 278.701 144.093 277.102 144.093C276.317 144.093 275.521 143.893 274.792 143.473L263.365 136.877C261.151 135.599 260.392 132.768 261.67 130.554Z" fill="#696969"/>
<path d="M245.517 149.31C247.73 148.032 250.561 148.791 251.84 151.004L257.484 160.782C258.763 162.996 258.004 165.827 255.79 167.105C255.061 167.526 254.265 167.726 253.48 167.726C251.88 167.726 250.324 166.896 249.467 165.411L243.822 155.633C242.544 153.419 243.302 150.588 245.517 149.31Z" fill="#696969"/>
<path d="M186.603 47.2695C188.817 45.991 191.647 46.7497 192.926 48.9637L199.522 60.3869C200.8 62.6009 200.042 65.432 197.828 66.71C197.099 67.1312 196.303 67.3312 195.518 67.3312C193.918 67.3312 192.362 66.5012 191.505 65.0158L184.908 53.5926C183.63 51.3786 184.389 48.548 186.603 47.2695Z" fill="#696969"/>
</g>
<path d="M730.364 227.712L714.663 211.974C714.319 211.629 713.91 211.355 713.461 211.169C713.011 210.982 712.528 210.886 712.041 210.886C711.552 210.889 711.069 210.988 710.619 211.179C710.169 211.37 709.761 211.647 709.419 211.996L706.805 214.611L704.909 212.715L699.932 192.785C699.769 192.134 699.434 191.539 698.962 191.063L660.234 152.306V106.25C660.234 105.578 660.051 104.919 659.705 104.343L649.125 86.7086V84.0312H652.828C653.81 84.0312 654.752 83.6411 655.447 82.9466C656.141 82.2522 656.531 81.3103 656.531 80.3281V58.1094C656.531 57.1272 656.141 56.1853 655.447 55.4909C654.752 54.7964 653.81 54.4062 652.828 54.4062H593.578C592.596 54.4062 591.654 54.7964 590.96 55.4909C590.265 56.1853 589.875 57.1272 589.875 58.1094V80.3281C589.875 81.3103 590.265 82.2522 590.96 82.9466C591.654 83.6411 592.596 84.0312 593.578 84.0312V86.2013L579.851 99.9288C579.156 100.623 578.766 101.565 578.766 102.547V146.984C578.772 148.494 579.09 149.987 579.699 151.369L540.038 191.052C539.566 191.528 539.231 192.123 539.068 192.774L534.095 212.711L532.188 214.615L529.573 212C528.879 211.306 527.937 210.916 526.955 210.916C525.973 210.916 525.032 211.306 524.337 212L508.625 227.712C507.931 228.407 507.541 229.349 507.541 230.331C507.541 231.313 507.931 232.254 508.625 232.949L550.522 274.842C551.216 275.536 552.158 275.926 553.14 275.926C554.122 275.926 555.064 275.536 555.758 274.842L571.467 259.13C572.158 258.436 572.545 257.496 572.545 256.517C572.545 255.538 572.158 254.599 571.467 253.905L572.996 252.375H592.43C593.412 252.375 594.354 251.985 595.048 251.29L619.5 226.809L643.941 251.29C644.635 251.985 645.577 252.375 646.559 252.375H665.985L667.522 253.912C666.834 254.606 666.447 255.544 666.447 256.521C666.447 257.498 666.834 258.436 667.522 259.13L683.223 274.831C683.918 275.525 684.86 275.915 685.842 275.915C686.823 275.915 687.765 275.525 688.46 274.831L730.342 232.949C731.039 232.257 731.433 231.317 731.437 230.335C731.442 229.353 731.055 228.41 730.364 227.712ZM597.281 61.8125H649.125V76.625H597.281V61.8125ZM599.899 90.3525C600.594 89.6582 600.984 88.7164 600.984 87.7344V84.0312H641.719V87.7344C641.719 88.4063 641.902 89.0656 642.248 89.6415L652.828 107.276V146.614C650.421 145.817 647.819 145.833 645.422 146.659V139.578H638.016V151.058L636.116 149.158C634.61 147.643 632.698 146.596 630.609 146.144V139.578H623.203V147.118C621.011 148.205 619.267 150.023 618.271 152.258L617.785 151.773C617.185 151.18 616.518 150.659 615.797 150.221V139.578H608.391V148.658C606.001 148.98 603.781 150.073 602.069 151.773C601.433 152.423 600.881 153.151 600.425 153.939C600.235 153.3 599.987 152.681 599.685 152.087C600.53 150.519 600.977 148.766 600.984 146.984V124.766H593.578V146.614C591.182 145.77 588.568 145.77 586.172 146.614V104.08L599.899 90.3525ZM553.14 266.988L516.479 230.327L526.955 219.854L563.616 256.515L553.14 266.988ZM590.893 244.969H571.47C570.488 244.969 569.547 245.36 568.852 246.054L566.242 248.646L537.428 219.851L540.057 217.222C540.531 216.746 540.867 216.151 541.031 215.5L546.004 195.573L587.109 154.413C587.796 153.722 588.725 153.326 589.7 153.31C590.674 153.293 591.616 153.657 592.326 154.324C592.386 154.394 592.441 154.465 592.504 154.531C593.147 155.23 593.494 156.152 593.472 157.101C593.45 158.051 593.061 158.955 592.386 159.623V159.623L574.055 177.954L579.291 183.19L597.622 164.859C598.26 164.203 598.814 163.47 599.274 162.678C599.77 164.494 600.725 166.152 602.047 167.492L602.51 167.955C601.365 168.493 600.32 169.22 599.418 170.107C597.658 171.882 596.553 174.202 596.281 176.687L594.678 178.291L584.531 188.437L589.768 193.673L598.592 184.849C598.848 185.189 599.124 185.515 599.418 185.823L603.769 190.159L595.011 198.917L600.247 204.153L609.013 195.388L609.502 195.873C609.59 195.985 609.685 196.092 609.787 196.191L614.23 200.635L595.011 219.836L600.247 225.072L609.876 215.444C610.401 217.101 611.311 218.609 612.531 219.847L614.245 221.565L590.893 244.969ZM648.107 244.969L617.785 214.603C617.441 214.259 617.167 213.851 616.98 213.401C616.794 212.951 616.698 212.469 616.698 211.982C616.698 211.495 616.794 211.012 616.98 210.562C617.167 210.112 617.441 209.704 617.785 209.36C618.249 208.88 618.847 208.552 619.5 208.419C619.802 208.419 620.103 208.382 620.396 208.308C621.342 208.293 622.257 208.646 622.948 209.293V209.293L638.716 225.061L643.952 219.825L604.625 180.535C603.98 179.886 603.61 179.013 603.591 178.098C603.57 177.612 603.644 177.126 603.81 176.668C603.976 176.21 604.231 175.79 604.56 175.431C604.889 175.072 605.285 174.781 605.726 174.575C606.168 174.37 606.645 174.253 607.132 174.232C607.27 174.251 607.41 174.262 607.55 174.265C608.435 174.333 609.269 174.709 609.905 175.328L638.716 204.138L643.952 198.902L607.291 162.241C606.946 161.897 606.672 161.489 606.486 161.039C606.299 160.589 606.203 160.107 606.203 159.619C606.203 159.132 606.299 158.65 606.486 158.2C606.672 157.75 606.946 157.342 607.291 156.998C607.638 156.653 608.05 156.382 608.504 156.2C608.957 156.017 609.442 155.927 609.931 155.935C610.309 155.937 610.684 155.999 611.042 156.12C611.603 156.281 612.113 156.583 612.523 156.998L649.184 193.659L654.421 188.422L625.603 159.575C624.956 158.924 624.586 158.048 624.57 157.131C624.551 156.626 624.636 156.122 624.819 155.65C625.003 155.179 625.281 154.75 625.636 154.391C626.234 153.819 626.995 153.448 627.814 153.328C627.954 153.3 628.097 153.288 628.239 153.291C628.731 153.293 629.217 153.392 629.671 153.582C630.124 153.773 630.535 154.051 630.88 154.402L659.69 183.212L664.926 177.976L646.596 159.645C646.251 159.301 645.977 158.893 645.791 158.443C645.604 157.993 645.508 157.511 645.508 157.024C645.508 156.536 645.604 156.054 645.791 155.604C645.977 155.154 646.251 154.746 646.596 154.402C647.301 153.725 648.24 153.346 649.218 153.346C650.195 153.346 651.135 153.725 651.839 154.402L692.996 195.573L697.969 215.492C698.133 216.143 698.469 216.738 698.943 217.214L701.565 219.836L672.751 248.657L670.159 246.065C669.464 245.371 668.523 244.98 667.541 244.98L648.107 244.969ZM685.879 266.988L675.395 256.504L712.056 219.843L722.514 230.331L685.879 266.988Z" fill="#696969"/>
<path d="M573.766 112.031L568.952 106.402C558.921 114.994 551.239 125.997 546.63 138.375C542.021 150.753 540.636 164.1 542.605 177.161L549.926 176.05C549.402 172.558 549.14 169.031 549.141 165.5C549.137 155.337 551.337 145.295 555.588 136.064C559.84 126.833 566.041 118.634 573.766 112.031V112.031Z" fill="#696969"/>
<path d="M623.385 243.173L623.014 235.767C620.681 235.882 618.304 235.882 615.978 235.767L615.608 243.173C616.893 243.233 618.2 243.266 619.493 243.266C620.785 243.266 622.092 243.233 623.385 243.173Z" fill="#696969"/>
<path d="M696.895 173.277C697.151 170.718 697.266 168.092 697.266 165.5C697.269 154.268 694.838 143.168 690.139 132.965C685.44 122.763 678.586 113.7 670.048 106.402L665.234 112.031C672.959 118.634 679.16 126.833 683.412 136.064C687.663 145.295 689.863 155.337 689.859 165.5C689.859 167.855 689.741 170.225 689.511 172.536L696.895 173.277Z" fill="#696969"/>
<path d="M536.18 183.245C532.168 164.304 534.718 144.563 543.411 127.263C552.103 109.963 566.422 96.1348 584.013 88.0489L580.925 81.3203C561.805 90.1089 546.243 105.139 536.795 123.941C527.347 142.743 524.574 164.199 528.933 184.786L536.18 183.245Z" fill="#696969"/>
<path d="M605.302 249.494L604.073 256.797C614.287 258.505 624.713 258.505 634.927 256.797L633.698 249.494C624.297 251.057 614.703 251.057 605.302 249.494V249.494Z" fill="#696969"/>
<path d="M704.672 165.5C704.674 171.464 704.054 177.411 702.82 183.246L710.067 184.786C714.118 165.654 712.016 145.731 704.064 127.865C696.112 109.999 682.715 95.1042 665.789 85.3091L662.086 91.7229C675.014 99.2246 685.75 109.985 693.222 122.93C700.694 135.875 704.642 150.553 704.672 165.5V165.5Z" fill="#696969"/>
<g clip-path="url(#clip1)">
<path d="M1173.44 178.083H1120.41C1120.87 177.353 1121.31 176.609 1121.72 175.842C1128.64 162.811 1126.58 147.354 1117.73 136.608L1099.58 104.583C1089.42 85.7601 1071.94 84.0414 1055.05 82.3792C1052.62 82.1408 1050.12 81.8945 1047.65 81.6006C1030.56 79.5579 1027.23 77.7276 1014.82 70.9185C1013.35 70.114 1011.76 69.2428 1010.02 68.2999C1010.27 66.608 1010.14 64.8657 1009.62 63.1776C1008.71 60.2002 1006.7 57.765 1003.98 56.3296L989.027 48.3632C986.287 46.9074 983.139 46.6056 980.164 47.5157C977.185 48.4262 974.743 50.4383 973.29 53.1787L950.299 96.4599C948.842 99.196 948.541 102.342 949.45 105.319C950.359 108.297 952.37 110.74 955.11 112.196L970.055 120.16C971.789 121.081 973.652 121.518 975.492 121.518C979.66 121.517 983.699 119.274 985.792 115.344L986.014 114.925C990.732 117.852 993.495 120.618 996.011 124.707C1003.41 136.71 1010.64 140.206 1017.64 143.587C1020.07 144.762 1022.37 145.873 1024.77 147.369L1055.13 166.305C1055.36 166.444 1055.59 166.583 1055.82 166.721C1056.7 170.775 1058.27 174.616 1060.44 178.083H1012.33C1009.77 178.083 1007.7 180.155 1007.7 182.712V269.412C1007.7 277.456 1014.24 284 1022.28 284H1163.49C1171.53 284 1178.07 277.456 1178.07 269.412V182.712C1178.07 180.156 1175.99 178.083 1173.44 178.083V178.083ZM1113.54 171.501C1112.24 173.961 1110.57 176.166 1108.58 178.083H1072.29C1069.83 175.723 1067.87 172.916 1066.5 169.82C1066.87 169.766 1067.25 169.693 1067.62 169.593C1070.44 168.833 1072.72 166.862 1074.38 163.734C1077.5 157.86 1076.25 148.326 1071.93 140.665C1079.97 132.591 1092.43 130.585 1102.72 136.059C1115.46 142.85 1120.31 158.749 1113.54 171.501V171.501ZM1066.2 133.331L1050.88 117.424C1050.83 117.371 1050.79 117.32 1050.75 117.272C1051.29 117.064 1052.12 116.818 1053.36 116.609C1065.51 114.578 1069 117.996 1074.66 127.428C1071.6 128.947 1068.75 130.925 1066.2 133.331ZM977.618 110.997C977.011 112.137 975.536 112.59 974.403 111.988L959.458 104.023C959.457 104.023 959.455 104.022 959.453 104.021C958.704 103.623 958.411 102.969 958.303 102.615C958.195 102.261 958.073 101.556 958.472 100.807L981.467 57.5192C981.864 56.7702 982.516 56.4772 982.87 56.3694C983.039 56.318 983.288 56.2629 983.584 56.2629C983.908 56.2629 984.288 56.3286 984.678 56.536L999.641 64.5093C1000.38 64.8977 1000.67 65.5457 1000.78 65.897C1000.89 66.2535 1001.01 66.9635 1000.61 67.7167L977.618 110.997ZM1060.03 158.447L1029.67 139.515C1026.85 137.755 1024.21 136.483 1021.67 135.252C1015.08 132.067 1009.87 129.551 1003.89 119.852C1000.16 113.78 995.822 110.033 990.368 106.73L1006.27 76.7953C1007.74 77.5929 1009.1 78.3395 1010.37 79.0348C1022.97 85.9499 1027.69 88.5375 1046.56 90.7932C1049.12 91.0982 1051.67 91.3495 1054.14 91.5926C1070.62 93.2131 1083.63 94.4935 1091.45 109.017C1091.47 109.047 1091.49 109.076 1091.5 109.105L1100.65 125.242C1095.04 123.543 1089.19 123.294 1083.61 124.387C1076.86 112.909 1070.62 104.337 1051.83 107.479C1046.2 108.425 1042.71 110.646 1041.45 114.081C1040.69 116.171 1040.5 119.504 1043.91 123.517C1043.97 123.59 1044.03 123.662 1044.1 123.731L1060.91 141.185C1066.24 146.709 1067.93 156.152 1066.21 159.389C1065.7 160.339 1065.31 160.627 1065.22 160.653C1065.02 160.704 1063.87 160.841 1060.03 158.447V158.447ZM1163.49 274.742H1022.28C1019.34 274.742 1016.96 272.351 1016.96 269.412V214.776H1041.99C1044.55 214.776 1046.62 212.703 1046.62 210.147C1046.62 207.59 1044.55 205.518 1041.99 205.518H1016.96V187.341H1168.81V205.518H1083.52C1080.96 205.518 1078.89 207.59 1078.89 210.147C1078.89 212.703 1080.96 214.776 1083.52 214.776H1168.81V269.412C1168.81 272.351 1166.42 274.742 1163.49 274.742Z" fill="#696969"/>
<path d="M1137.07 228.323H1048.69C1046.13 228.323 1044.06 230.396 1044.06 232.952V256.557C1044.06 259.113 1046.13 261.186 1048.69 261.186H1137.07C1139.63 261.186 1141.7 259.113 1141.7 256.557V232.952C1141.7 230.396 1139.63 228.323 1137.07 228.323V228.323ZM1132.44 251.928H1053.32V237.581H1132.44V251.928Z" fill="#696969"/>
<path d="M1062.76 214.776H1062.78C1065.34 214.776 1067.4 212.704 1067.4 210.147C1067.4 207.591 1065.31 205.519 1062.76 205.519C1060.2 205.519 1058.13 207.591 1058.13 210.147C1058.13 212.704 1060.2 214.776 1062.76 214.776Z" fill="#696969"/>
</g>
<circle cx="39.5" cy="32.5" r="32.5" fill="#F8AE39"/>
<circle cx="486.5" cy="32.5" r="32.5" fill="#F8AE39"/>
<circle cx="912.5" cy="32.5" r="32.5" fill="#F8AE39"/>
<path d="M34.104 43.208H37.896V19.688H34.632V15.8H41.928V43.208H45.72V47H34.104V43.208Z" fill="white"/>
<path d="M486.144 43.112H494.016V38.648H497.808V47H476.544C478.528 45.016 480.448 43.096 482.304 41.24C484.16 39.352 485.808 37.544 487.248 35.816C488.688 34.056 489.84 32.36 490.704 30.728C491.568 29.064 492 27.48 492 25.976C492 24.792 491.808 23.784 491.424 22.952C491.04 22.12 490.544 21.432 489.936 20.888C489.36 20.344 488.72 19.944 488.016 19.688C487.344 19.432 486.72 19.304 486.144 19.304C484.928 19.304 483.936 19.512 483.168 19.928C482.4 20.344 481.792 20.856 481.344 21.464C480.896 22.072 480.576 22.712 480.384 23.384C480.224 24.056 480.144 24.648 480.144 25.16C480.144 26.216 480.304 27.16 480.624 27.992C480.944 28.792 481.408 29.512 482.016 30.152L479.616 32.6C479.072 32.248 478.576 31.784 478.128 31.208C477.712 30.6 477.344 29.96 477.024 29.288C476.736 28.584 476.512 27.88 476.352 27.176C476.192 26.44 476.112 25.768 476.112 25.16C476.112 23.88 476.32 22.648 476.736 21.464C477.184 20.28 477.824 19.24 478.656 18.344C479.52 17.448 480.576 16.744 481.824 16.232C483.072 15.688 484.512 15.416 486.144 15.416C487.616 15.416 488.96 15.688 490.176 16.232C491.392 16.776 492.432 17.512 493.296 18.44C494.16 19.336 494.832 20.392 495.312 21.608C495.792 22.792 496.032 24.056 496.032 25.4C496.032 27 495.744 28.552 495.168 30.056C494.624 31.528 493.888 33 492.96 34.472C492.064 35.944 491.024 37.4 489.84 38.84C488.656 40.248 487.424 41.672 486.144 43.112Z" fill="white"/>
<path d="M908.392 31.352L915.064 19.736H909.736V21.992H905.944V15.8H921.736L914.872 27.224C915.928 27.608 916.888 28.12 917.752 28.76C918.616 29.368 919.368 30.088 920.008 30.92C920.648 31.752 921.144 32.68 921.496 33.704C921.848 34.728 922.024 35.816 922.024 36.968C922.024 38.408 921.736 39.768 921.16 41.048C920.616 42.296 919.864 43.4 918.904 44.36C917.944 45.288 916.824 46.024 915.544 46.568C914.296 47.112 912.952 47.384 911.512 47.384C909.976 47.384 908.552 47.08 907.24 46.472C905.928 45.832 904.792 45 903.832 43.976L906.76 41.24C907.336 41.944 908.024 42.504 908.824 42.92C909.656 43.304 910.552 43.496 911.512 43.496C912.408 43.496 913.24 43.32 914.008 42.968C914.808 42.616 915.496 42.152 916.072 41.576C916.68 40.968 917.16 40.28 917.512 39.512C917.864 38.712 918.04 37.864 918.04 36.968C918.04 36.072 917.864 35.24 917.512 34.472C917.16 33.672 916.68 32.984 916.072 32.408C915.496 31.832 914.808 31.384 914.008 31.064C913.24 30.712 912.408 30.536 911.512 30.536C910.36 30.536 909.32 30.808 908.392 31.352Z" fill="white"/>
<defs>
<clipPath id="clip0">
<rect width="237" height="237" fill="white" transform="matrix(-1 0 0 1 294 38)"/>
</clipPath>
<clipPath id="clip1">
<rect width="237" height="237" fill="white" transform="translate(945 47)"/>
</clipPath>
</defs>
</svg>
